<?xml version="1.0" encoding="utf-8"?>
<!-- Generator: Adobe Illustrator 17.1.0, SVG Export Plug-In . SVG Version: 6.00 Build 0)  -->
<!DOCTYPE svg PUBLIC "-//W3C//DTD SVG 1.1//EN" "http://www.w3.org/Graphics/SVG/1.1/DTD/svg11.dtd">
<svg version="1.1" id="Layer_1" xmlns="http://www.w3.org/2000/svg" xmlns:xlink="http://www.w3.org/1999/xlink" x="0px" y="0px"
	 viewBox="0 0 269.4 283.5" enable-background="new 0 0 269.4 283.5" xml:space="preserve">
<g>
	<g>
		<path fill="#FF8A28" d="M28.6,169.2c-0.6,52,41,94.7,93,95.3c0.7,0,1.5-0.1,2.2-0.1V76.2C71.9,75.6,29.2,117.2,28.6,169.2z"/>
		<path fill="#EF7820" d="M216.9,171.5c0.6-52-41-94.7-93-95.3c0,0-0.1,0-0.1,0v188.2C174.8,263.8,216.3,222.7,216.9,171.5z"/>
		<path fill="#FFFFFF" d="M123.6,99c-39.3-0.5-71.7,31.1-72.2,70.4c-0.5,39.3,31.1,71.7,70.4,72.2c0.6,0,1.3-0.1,1.9-0.1V99
			C123.8,99,123.7,99,123.6,99z"/>
		<path fill="#E5E5E5" d="M194,171.2c0.5-39.3-31-71.6-70.2-72.2v142.5C162.3,241,193.6,209.9,194,171.2z"/>
		<path fill="#FF8A28" d="M123.4,121.9c-26.7-0.3-48.7,21.1-49,47.8c-0.3,26.7,21.1,48.7,47.8,49c0.6,0,1.1,0,1.7-0.1v-96.8
			C123.7,121.9,123.5,121.9,123.4,121.9z"/>
		<path fill="#EF7820" d="M171.2,170.9c0.3-26.5-20.9-48.4-47.4-49v96.8C149.8,218.1,170.9,197.1,171.2,170.9z"/>
		<path fill="#FFFFFF" d="M123.1,144.8c-14.1-0.2-25.7,11.1-25.9,25.2c-0.2,14.1,11.2,25.7,25.2,25.9c0.5,0,0.9-0.1,1.4-0.1v-50.9
			C123.6,144.8,123.3,144.8,123.1,144.8z"/>
		<path fill="#E5E5E5" d="M148.3,170.6c0.2-13.8-10.8-25.2-24.5-25.8v50.9C137.3,195.2,148.2,184.3,148.3,170.6z"/>
	</g>
	<g>
		<polygon fill="#00A2A2" points="230.8,36.4 176.9,89 178.3,110 232.2,57.6 		"/>
		<polygon fill="#00A2A2" points="262.7,69.1 240.8,66.8 186.7,119.3 208.8,121.7 		"/>
		<polygon fill="#3E4651" points="178.9,119.1 178.8,118.5 178.2,118.4 178.8,117.9 178.3,110 125.1,161.7 133.9,170.7 186.7,119.3 
			179.4,118.6 		"/>
		<polygon fill="#3E4651" points="232.1,65.8 232.7,65.9 232.2,57.6 178.3,110 178.8,117.9 		"/>
		<polygon fill="#3E4651" points="178.9,119.1 179.4,118.6 178.8,118.5 		"/>
		<polygon fill="#3E4651" points="232.7,65.9 232.8,66.5 179.4,118.6 186.7,119.3 240.8,66.8 		"/>
		<polygon fill="#3E4651" points="178.2,118.4 178.8,118.5 178.8,117.9 		"/>
		<polygon fill="#3E4651" points="178.8,117.9 178.8,118.5 179.4,118.6 232.8,66.5 232.7,65.9 232.1,65.8 		"/>
	</g>
</g>
</svg>
