<?xml version="1.0" encoding="utf-8"?>
<!-- Generator: Adobe Illustrator 17.1.0, SVG Export Plug-In . SVG Version: 6.00 Build 0)  -->
<!DOCTYPE svg PUBLIC "-//W3C//DTD SVG 1.1//EN" "http://www.w3.org/Graphics/SVG/1.1/DTD/svg11.dtd">
<svg version="1.1" id="Layer_1" xmlns="http://www.w3.org/2000/svg" xmlns:xlink="http://www.w3.org/1999/xlink" x="0px" y="0px"
	 viewBox="0 0 178.5 178.5" enable-background="new 0 0 178.5 178.5" xml:space="preserve">
<g>
	<g>
		<circle fill="#484860" cx="89.3" cy="89.3" r="89.3"/>
	</g>
	<g>
		<circle fill="#797989" cx="89.3" cy="89.3" r="74.4"/>
	</g>
	<g>
		<g>
			<g>
				<g>
					<path fill="#44475A" d="M89.3,33.6c-1.7,0-3-1.3-3-3v-7c0-1.7,1.3-3,3-3s3,1.3,3,3v7C92.3,32.3,90.9,33.6,89.3,33.6z"/>
				</g>
				<g>
					<path fill="#44475A" d="M89.3,158c-1.7,0-3-1.3-3-3v-7c0-1.7,1.3-3,3-3s3,1.3,3,3v7C92.3,156.6,90.9,158,89.3,158z"/>
				</g>
			</g>
			<g>
				<g>
					<path fill="#44475A" d="M30.6,92.3h-7c-1.7,0-3-1.3-3-3c0-1.7,1.3-3,3-3h7c1.7,0,3,1.3,3,3C33.6,90.9,32.3,92.3,30.6,92.3z"/>
				</g>
				<g>
					<path fill="#44475A" d="M155,92.3h-7c-1.7,0-3-1.3-3-3c0-1.7,1.3-3,3-3h7c1.7,0,3,1.3,3,3C158,90.9,156.6,92.3,155,92.3z"/>
				</g>
			</g>
		</g>
		<g>
			<g>
				<g>
					<path fill="#44475A" d="M120.9,42.8c-0.6,0-1.1-0.2-1.6-0.5c-1.4-0.9-1.8-2.7-0.9-4.1l3.8-5.9c0.9-1.4,2.7-1.8,4.1-0.9
						c1.4,0.9,1.8,2.7,0.9,4.1l-3.8,5.9C122.8,42.4,121.9,42.8,120.9,42.8z"/>
				</g>
				<g>
					<path fill="#44475A" d="M53.8,147.6c-0.6,0-1.1-0.2-1.6-0.5c-1.4-0.9-1.8-2.7-0.9-4.1l3.8-5.9c0.9-1.4,2.7-1.8,4.1-0.9
						c1.4,0.9,1.8,2.7,0.9,4.1l-3.8,5.9C55.8,147.1,54.8,147.6,53.8,147.6z"/>
				</g>
			</g>
			<g>
				<g>
					<path fill="#44475A" d="M39.8,60.6c-0.6,0-1.1-0.2-1.6-0.5l-5.9-3.8c-1.4-0.9-1.8-2.7-0.9-4.1c0.9-1.4,2.7-1.8,4.1-0.9l5.9,3.8
						c1.4,0.9,1.8,2.7,0.9,4.1C41.8,60.2,40.8,60.6,39.8,60.6z"/>
				</g>
				<g>
					<path fill="#44475A" d="M144.6,127.7c-0.6,0-1.1-0.2-1.6-0.5l-5.9-3.8c-1.4-0.9-1.8-2.7-0.9-4.1c0.9-1.4,2.7-1.8,4.1-0.9
						l5.9,3.8c1.4,0.9,1.8,2.7,0.9,4.1C146.6,127.2,145.6,127.7,144.6,127.7z"/>
				</g>
			</g>
		</g>
		<g>
			<g>
				<g>
					<path fill="#44475A" d="M141.6,65.7c-1.1,0-2.1-0.6-2.7-1.6c-0.8-1.5-0.2-3.3,1.3-4l6.3-3.2c1.5-0.8,3.3-0.2,4,1.3
						c0.8,1.5,0.2,3.3-1.3,4l-6.3,3.2C142.5,65.6,142,65.7,141.6,65.7z"/>
				</g>
				<g>
					<path fill="#44475A" d="M30.7,122c-1.1,0-2.1-0.6-2.7-1.6c-0.8-1.5-0.2-3.3,1.3-4l6.3-3.2c1.5-0.8,3.3-0.2,4,1.3
						c0.8,1.5,0.2,3.3-1.3,4l-6.3,3.2C31.6,121.9,31.1,122,30.7,122z"/>
				</g>
			</g>
			<g>
				<g>
					<path fill="#44475A" d="M62.7,40c-1.1,0-2.1-0.6-2.7-1.6L56.8,32c-0.8-1.5-0.2-3.3,1.3-4c1.5-0.8,3.3-0.2,4,1.3l3.2,6.3
						c0.8,1.5,0.2,3.3-1.3,4C63.6,39.9,63.2,40,62.7,40z"/>
				</g>
				<g>
					<path fill="#44475A" d="M119,150.9c-1.1,0-2.1-0.6-2.7-1.6l-3.2-6.3c-0.8-1.5-0.2-3.3,1.3-4c1.5-0.8,3.3-0.2,4,1.3l3.2,6.3
						c0.8,1.5,0.2,3.3-1.3,4C119.9,150.7,119.5,150.9,119,150.9z"/>
				</g>
			</g>
		</g>
	</g>
	<g>
		<path fill="#DBA247" d="M124.8,122.7L99.3,97.2c1.7-2.2,2.8-4.9,2.8-8c0-6.1-4.2-11.1-9.9-12.5V43.6c0-1.7-1.3-3-3-3s-3,1.3-3,3
			v33.2c-4.2,1-7.5,4-9,8H53.8c-2.5,0-4.5,2-4.5,4.5c0,2.5,2,4.5,4.5,4.5h23.4c1.8,4.9,6.5,8.4,12,8.4c3,0,5.8-1,8-2.8l25.5,25.5
			c0.3,0.3,0.7,0.4,1.1,0.4s0.8-0.1,1.1-0.4C125.4,124.2,125.4,123.3,124.8,122.7z M89.3,95c-3.2,0-5.7-2.6-5.7-5.7
			c0-3.2,2.6-5.7,5.7-5.7c3.2,0,5.7,2.6,5.7,5.7C95,92.4,92.4,95,89.3,95z"/>
	</g>
</g>
</svg>
