<?xml version="1.0" encoding="utf-8"?>
<!-- Generator: Adobe Illustrator 17.1.0, SVG Export Plug-In . SVG Version: 6.00 Build 0)  -->
<!DOCTYPE svg PUBLIC "-//W3C//DTD SVG 1.1//EN" "http://www.w3.org/Graphics/SVG/1.1/DTD/svg11.dtd">
<svg version="1.1" id="Layer_1" xmlns="http://www.w3.org/2000/svg" xmlns:xlink="http://www.w3.org/1999/xlink" x="0px" y="0px"
	 viewBox="0 0 317.4 214" enable-background="new 0 0 317.4 214" xml:space="preserve">
<g>
	<g>
		<g>
			<polygon fill="#00A2A2" points="209.4,65.9 204.3,63.6 168.5,145.5 173.6,147.7 209.4,65.9 			"/>
		</g>
		<g>
			<path fill="#D4D4D4" d="M125.8,140.5c0,30.8-25,55.8-55.8,55.8l0,0c-30.8,0-55.8-25-55.8-55.8l0,0c0-30.8,25-55.8,55.8-55.8l0,0
				C100.8,84.7,125.8,109.7,125.8,140.5L125.8,140.5z M118.5,140.5c0-26.8-21.7-48.4-48.5-48.5l0,0c-26.8,0-48.4,21.7-48.5,48.5l0,0
				C21.5,167.3,43.2,189,70,189l0,0C96.8,189,118.4,167.3,118.5,140.5L118.5,140.5z"/>
		</g>
		<g>
			<path fill="#BCBAB8" d="M306.1,140.5c0,30.8-25,55.8-55.8,55.8l0,0c-30.8,0-55.8-25-55.8-55.8l0,0c0-30.8,25-55.8,55.8-55.8l0,0
				C281.1,84.7,306.1,109.7,306.1,140.5L306.1,140.5z M298.8,140.5c-0.1-26.8-21.7-48.4-48.5-48.5l0,0c-26.8,0-48.4,21.7-48.5,48.5
				l0,0c0.1,26.8,21.7,48.4,48.5,48.5l0,0C277.1,189,298.7,167.3,298.8,140.5L298.8,140.5z"/>
		</g>
		<g>
			<path fill="#00B5B5" d="M87.1,93.2c-11.9,25-22.9,48.8-23,48.8l-5.1-2.4l0,0c0,0,11.1-23.8,23-48.8l0,0
				c11.9-25.1,24.5-51.3,27.9-56.9l0,0c2.5-4.1,7-5.5,11.1-5.4l0,0c10.2,0.1,21.7,6.7,22,6.7l-2.7,4.9l0,0c0,0-0.7-0.4-1.8-0.9l0,0
				c-3.5-1.7-11.6-5.2-17.4-5.1l0,0c-3.2,0-5.2,0.8-6.4,2.7l0,0C111.8,41.6,99,68.2,87.1,93.2L87.1,93.2z M140.4,40.1L140.4,40.1
				L140.4,40.1L140.4,40.1L140.4,40.1L140.4,40.1z"/>
		</g>
		<g>
			<path fill="#00A2A2" d="M206.3,69l-4.6,3.2l46.7,66.3c-6.8,0.6-21.3,2-47.7,4.8c-4.2,0.4-8.2,0.6-11.8,0.6
				c-12.6,0-21.8-2.5-28.9-6.4v6.3c7.6,3.6,17,5.7,28.8,5.7c0.1,0,0.1,0,0.2,0c3.9,0,8-0.2,12.4-0.7c39.5-4.1,52.3-5.2,52.4-5.2
				l4.9-0.4L206.3,69z"/>
			<path fill="#00B5B5" d="M152.5,132.3c-8-7-13.1-16.5-18.1-26.7C122.9,82.1,96,67.1,95.8,66.9l-2.7,4.9c0,0,1.6,0.9,4.1,2.6
				c2.6,1.7,6.2,4.2,10.1,7.4c7.8,6.4,16.9,15.6,22.1,26.2c5,10.2,10.4,20.6,19.4,28.4c3.2,2.8,6.9,5.3,11.2,7.3v-6.3
				C157.2,135.9,154.7,134.2,152.5,132.3z"/>
		</g>
		<g>
			<path fill="#00A2A2" d="M176.5,115c-2.9-1.5-6.5-3.7-10.5-6.6c-1.9-1.4-3.9-2.9-6-4.6v7.1c5.2,3.9,10,7,13.9,9
				c3.3,1.6,5.7,2.7,8.2,2.7v-5.6C181.7,117.2,179.3,116.5,176.5,115z"/>
			<path fill="#00B5B5" d="M141,85.4c-16.9-19.8-41.5-26.1-41.7-26.3v0l-1.4,5.4c0,0,1.4,0.4,3.8,1.2c2.4,0.9,5.9,2.2,9.8,4.1
				c7.8,3.8,17.6,10,25.3,19.1c7.4,8.7,15.7,16.1,23.3,21.9v-7.1C153.6,98.8,146.9,92.5,141,85.4z"/>
		</g>
		<polygon fill="#EF7820" points="189.6,57.7 232.4,50 231.1,65.7 183,65.7 		"/>
		<g>
			<polygon fill="#FF8A28" points="150.4,35.1 127.6,27.2 124.6,36 147.4,43.9 150.4,35.1 			"/>
		</g>
	</g>
</g>
</svg>
