<?xml version="1.0" encoding="utf-8"?>
<!-- Generator: Adobe Illustrator 17.1.0, SVG Export Plug-In . SVG Version: 6.00 Build 0)  -->
<!DOCTYPE svg PUBLIC "-//W3C//DTD SVG 1.1//EN" "http://www.w3.org/Graphics/SVG/1.1/DTD/svg11.dtd">
<svg version="1.1" id="Layer_1" xmlns="http://www.w3.org/2000/svg" xmlns:xlink="http://www.w3.org/1999/xlink" x="0px" y="0px"
	 viewBox="135.9 121 628 540" enable-background="new 135.9 121 628 540" xml:space="preserve">
<g>
	<path fill="#624D34" d="M482,123c11.7-1,23.4-1.4,35.1-2c2.5,2,2.3,5.4,3,8.2c-3,0.5-6,1.6-9.1,1.7c-3.2-0.3-5.9-2.1-9-2.6
		c-3.2,0.1-6.3,1.2-9.5,1.9c-0.3,0.1-0.9,0.2-1.2,0.2c-0.3,5.2-0.1,10.4,0.4,15.6c0.4,8.6,0.3,17.3,0.6,26c0.4,4.7,0.9,9.4,0.3,14.1
		c-8.3-0.3-16.3,2.1-24.5,2.6c-5.2,0.3-10.2,1.8-15.3,2.9c-8.7,1.6-17.6,2-26.4,2.9c-12.4,2.1-24.5,5.1-36.7,8
		c-13.9,2.7-27.8,4.9-41.6,7.8c-12.6,3.3-25.6,4.9-38.4,7.2c-13.9,2.3-27.9,4.3-41.7,7.5c-8.7,2-17.6,3.4-26.2,5.7
		c2.7,0,5.4-0.2,8.2-0.5c6.7-0.9,13.5-1.1,20-2.5c13.5-2.3,26.8-5.3,40.4-7.2c13.2-2.4,26.5-4.6,39.6-7.6c13-2.8,26.1-4.9,39.1-7.6
		c10-2.4,20-4.7,30-7.1c7.9-1.8,16-2.4,24-3.3c8.7-0.8,17.3-2.6,25.9-3.7c5-0.8,10.1-0.9,15-2c2.8-0.6,5.6-1.1,8.5-1.6
		c0.1,0.6,0.2,1.8,0.3,2.4c-1.2,2.2-2.8,4.4-2.8,7c-0.4,9,0.2,18.1-0.8,27c-0.7,7,0.1,14-0.9,21c-5.3,0.4-10.5,1.1-15.6,2.5
		c-14.2,3.3-28.5,6.3-42.7,9.4c-19.6,3.7-39.4,6.9-59,10.9c-20.6,4.2-41.4,6.8-62,11.1c-11.2,2.7-22.6,5-34.1,6.4
		c-3.8,0.5-7.5,1.7-11.1,3c-4.1-6.8-9.1-13-13.9-19.2c-8.4-10.9-17.1-21.7-25.1-32.9c-4.4-6.1-7.7-12.8-12.2-18.8
		c-10.7-14.5-22.3-28.3-33.8-42.2c-1.8-1.8-3.3-4.2-5.7-5.1c-3.4-0.1-7.4,0.5-9.6,3.4c-0.7,1.4-1.3,2.9-1.9,4.3
		c-0.8-0.9-1.6-1.9-2.6-2.7c-2.3-0.3-4.6-0.2-6.9-0.1c0,0.6,0.1,1.8,0.1,2.4c-0.2,0.5-0.6,1.6-0.8,2.1c-1.9-1.4-3.5-3.1-5.6-4.1
		c-3.2-0.1-6.5-0.7-9.5-2c-0.1-0.9-0.2-1.7-0.3-2.6c11.1-4.6,23.3-4.7,35.1-6c2,1.3,4,2.7,6,4c3.9-0.9,7.9-1.3,11.9-1.9
		c4.9-1.1,9.3-3.6,14-5c4.4,0.1,8.7,0.6,13.1,0.9c2.3-1.3,4.6-2.8,7-3.9c5.4-0.4,10.8,0.2,16.1-0.3c8.1-2.9,16.5-5.1,24.9-7
		c22.4-5.1,45.2-8.4,68-11.1C382,134.9,432,128.9,482,123z"/>
	<path fill="#624D34" d="M470.6,249.5c5.7-1.6,11.6-1.7,17.4-1.5c0,0.6-0.1,1.9-0.2,2.6c-0.4,0.4-1.2,1.1-1.6,1.5
		c-0.8,4.8-0.3,9.7-0.9,14.5c-0.5,4.6-1.5,9.4,0.2,13.9c-50.2,9.2-100.4,18.9-150.6,28.1c-17.4,3.2-34.8,6.3-52.1,9.7
		c-0.9-2.2-1.7-4.5-2.9-6.6c-5.5-7.5-11.1-14.8-15.8-22.8c2.5-0.5,4.9-1,7.4-1.5c25.1-4.3,50.1-9.5,75.4-13.4
		c10.6-2.1,21-4.8,31.6-6.7c11.7-1.8,23.4-3.9,35-5.9C432.9,259.1,451.6,253.3,470.6,249.5z"/>
</g>
<g>
	<path fill="#876F4D" d="M492.5,130.2c3.1-0.7,6.2-1.8,9.5-1.9c3.1,0.4,5.9,2.3,9,2.6c3.1-0.1,6.1-1.1,9.1-1.7
		c4.6,1.7,8.9,4.2,13.5,6.1c-0.5,1.6-2.5,1.4-3.7,2.1c2,1.2,4,2.5,6.1,3.6c21.3,9.4,42.7,18.5,64,28c34.4,15.6,68.7,31.4,103.1,47.1
		c4-0.8,7.9-1.3,11.9-2.1c10.7,4.6,21.3,9,32,13.6c1.6,0.5,2.2,2.3,3,3.6c-3.8,0.4-7.3,2.3-11.1,2.3c-7-5.9-15.5-9.7-24.1-12.6
		c2.5,2.1,5.3,3.8,8.3,5.1c3.3,1.4,5.9,4,8.5,6.4c-3.5,1-7,1.7-10.5,2.4c-3.8-3.3-8.6-4.8-13.1-6.8c-19.2-8.4-38.4-17-57.6-25.5
		c-21-9.9-42-20.1-63.1-29.9c-13-5.7-26.2-10.9-39-17c-12.2-6.6-25.2-11.6-38-17C504.1,136.4,498.2,133.4,492.5,130.2z"/>
	<path fill="#876F4D" d="M152.1,175c2.3,0,4.6-0.2,6.9,0.1c1,0.8,1.8,1.7,2.6,2.7c2.7,3.2,5.5,6.4,8.2,9.6c-2.2,0.3-4.4,0.5-6.6,0.5
		c-4.2-2.9-8.4-5.9-11-10.5C152.1,176.9,152.1,175.6,152.1,175z"/>
</g>
<g>
	<path fill="#4F3E2A" d="M491.2,130.4c0.3-0.1,0.9-0.2,1.2-0.2c5.7,3.3,11.6,6.2,17.8,8.5c12.8,5.4,25.8,10.4,38,17
		c12.8,6.1,26.1,11.3,39,17c21.1,9.8,42,20,63.1,29.9c19.2,8.5,38.3,17.1,57.6,25.5c4.5,2,9.4,3.4,13.1,6.8c3.5-0.7,7-1.4,10.5-2.4
		c0.7,0.7,1.4,1.3,2.1,2c-8.8,2.4-17.7,4.4-26.5,6.3c-29.8,5.4-59.6,10.6-89.5,15.5c-5.6-4.8-12.5-7.6-18.9-11.1
		c-14.8-8.1-29.5-16.4-44-24.9c-5.1-2.9-9.8-6.4-15-8.9c-8.8-4.4-17.8-8.1-26.7-12.2c-2.3-1.1-4.7-1.8-7.1-2.3
		c8.3,5.3,17.2,9.6,25.9,14.4c9.9,5.6,20.1,10.4,30,16c15.9,9,31.6,18.4,47.4,27.6c2.2,1.3,4.8,1.4,7.2,1.6
		c-8.8,1.8-17.6,3.2-26.4,4.7c-22.8,3.9-45.6,8.2-68.3,12.5c-4.8-3.2-9.5-6.7-14.1-10.2c-6.4-4.5-12.9-8.9-19.6-12.9
		c0-0.6,0.1-1.9,0.2-2.6c0.1-0.8,0.2-2.3,0.2-3c0.9-7,0.1-14,0.9-21c1-9,0.3-18,0.8-27c0-2.6,1.6-4.8,2.8-7
		c-0.1-0.6-0.2-1.8-0.3-2.4c0-0.3,0.1-1,0.1-1.4c0.6-4.7,0.1-9.4-0.3-14.1c-0.3-8.7-0.2-17.3-0.6-26
		C491.2,140.8,490.9,135.6,491.2,130.4z"/>
	<path fill="#4F3E2A" d="M485.4,266.6c0.6-4.8,0.1-9.7,0.9-14.5c10.2,7.6,21.2,14.4,31.2,22.3c-10.6,2.1-21.3,4-31.9,6.1
		C483.9,276,485,271.2,485.4,266.6z"/>
</g>
<g>
	<path fill="#B69E7B" d="M533.6,135.3c1.1,0.2,1.7,0.9,1.5,2c0.6,0.9,0.5,2.5,0.9,3.6c-2.1-1.1-4.1-2.4-6.1-3.6
		C531.1,136.7,533.1,136.9,533.6,135.3z"/>
</g>
<g>
	<path fill="#846D4F" d="M163.5,173.5c2.1-2.9,6.2-3.5,9.6-3.4c2.4,1,4,3.3,5.7,5.1c11.5,13.9,23.1,27.7,33.8,42.2
		c4.5,6,7.8,12.7,12.2,18.8c8,11.2,16.7,22,25.1,32.9c4.9,6.2,9.8,12.5,13.9,19.2l0.5,0.7c4.7,8,10.4,15.3,15.8,22.8
		c-1.4,1.3-2.7,2.7-4.3,3.8c-2.4,1.1-5.1,1.2-7.7,1.4c-4.6,0.3-9.2,0.7-13.9,0.9c-1.8-2.9-3.6-5.8-5.4-8.6
		c-2.8-4.4-4.6-9.3-7.4-13.7c-8.4-13.3-17.1-26.4-25.1-40c-9.7-15.9-20.3-31.2-29.8-47.2c-3.9-6.1-7.8-12.2-12.4-17.8
		c-0.7-2.4-1.1-5-2.7-7C168.7,180.3,166.1,176.9,163.5,173.5z"/>
</g>
<g>
	<path fill="#473622" d="M136.2,173.5c3,1.3,6.2,1.9,9.5,2c2.1,0.9,3.8,2.7,5.6,4.1c-0.2,19.5-0.8,38.9,0.5,58.4
		c0.4,16.4,1.7,32.7,2.8,49c0,3.9,1.6,8.4-0.6,12c-1,0.4-2,0.7-3,1c-4-22.3-8-44.7-12-67c1.3-0.3,2.7-0.7,4-1
		C140.7,212.5,138.6,193,136.2,173.5z"/>
	<path fill="#473622" d="M149,305c2-1,4-2,6-3c1.3,3.9,1.1,8,1.4,12c1,11.7,1.7,23.3,2.4,35c-0.1,1.2-0.4,2.4-0.7,3.6
		C154.7,336.8,152.1,320.9,149,305z"/>
</g>
<g>
	<path fill="#55452E" d="M161.5,177.8c0.6-1.4,1.2-2.9,1.9-4.3c2.7,3.4,5.3,6.8,7.9,10.2c1.6,2,2,4.6,2.7,7
		c-0.4,11.1,0.6,22.2,1.8,33.3c0.2,6.1,0.1,12.4-1.8,18.3c-0.7-15.1-1.6-30.2-2.5-45.4c-0.4-3.1,0-6.6-1.7-9.4
		C167,184.3,164.2,181.1,161.5,177.8z"/>
</g>
<g>
	<path fill="#5C462B" d="M152.2,177.5c2.6,4.5,6.8,7.6,11,10.5c0,4.7,0.5,9.4,0.5,14c0,21.3,0.8,42.7,0.8,64c0.2,9,1,18.1,1.8,27.1
		c0.1,9,1.2,17.9,1.3,26.9c1.5,18,2.7,36.1,4.2,54.1c0.2,2.6,0.4,5.3,0.4,7.9c0,17,0,34,0,51c0,5.1,0.3,10.5-2.2,15.1l-0.5-0.2
		c-1.9-3.8-3.7-7.7-5.1-11.7c-0.2-7.4,0.1-14.8-1-22.2c-1.1-6.5-2.1-13-3.1-19.6c0.4-0.4,1.1-1.3,1.5-1.7
		c-0.1-8.2-0.6-16.5-1.6-24.7c-0.4-0.5-1.3-1.4-1.7-1.9c0.6-0.8,1.2-1.5,1.8-2.2c-0.6-3.8-1.7-7.6-1.9-11.4c0.4-1.2,0.6-2.4,0.7-3.6
		c-0.7-11.7-1.4-23.4-2.4-35c-0.2-4-0.1-8.1-1.4-12c-0.3-1-0.6-2-0.9-3c2.2-3.6,0.7-8,0.6-12c-1.1-16.3-2.5-32.6-2.8-49
		c-1.3-19.4-0.7-38.9-0.5-58.4C151.5,179.1,152,178,152.2,177.5z"/>
	<path fill="#5C462B" d="M220.8,305c0-1.7,0.7-3.3,1.2-4.9c2.2,4.6,4.6,9.1,8.2,12.8c3,3,5.9,6.4,9.8,8c4-0.1,7.7-1.7,11.6-2.4
		c2.4,0.9,3.2,3.3,3.8,5.6c-7.1,1.6-14.3,3.1-21.4,5c0.1,0.4,0.1,1.3,0.2,1.8c1,10.4,0.9,20.8,0.8,31.2c0,8,1,16,1.2,24
		c1.1,11.6,1.1,23.3,2.8,34.8c0.5,3.6,1.1,7.2,1.1,10.9c0,2.4-0.1,4.9,0.2,7.4c1.1,11,2.4,22,3.6,32.9c0.4,10,0,20,0.2,30
		c0.1,3.6,1.5,7.1,2.6,10.5c1.1,0.4,2.1,0.8,3.2,1.1c2.6,0.6,5.3,0.9,7.9,1.2c0.1,2.5,0,5.1,0,7.6c-1.2,0.5-2.4,0.9-3.6,1.5
		c-2.7-1.6-5.4-3.2-8.4-4.2c0,2.1,0.1,4.3,0.3,6.4c2.5,19.7,5.1,39.3,7.5,59c0.2,3,1.8,5.7,3.3,8.2c0,0.4,0,1.3,0.1,1.7
		c0.1,2.5,0.2,5,0.5,7.6c0.5,8.1,1.5,16.2,2.2,24.4c0.4,5.2,1.6,10.3,1.9,15.6c-5.3-12.4-10.3-25-15.5-37.4c-0.8-1.9-1.8-3.9-1.9-6
		c-1.1-9.4-2.3-18.8-3.4-28.2c-0.1-1.3-0.7-2.5-1.2-3.7c0.3-3.1,0.4-6.1,0.1-9.2c-1.7-15-3.4-30-4.9-45c-0.2-2.9-1.2-5.6-2.3-8.2
		c1.3-3.1,0.4-6.4-1-9.3c1.4-4.8,0.2-9.6-0.2-14.5c-1.4-16-3-32-4.1-48c-0.4-5.5-0.2-11.1-2.1-16.3c-0.6-1.8-0.9-3.6-0.7-5.5
		c1.5-4.8,0.6-9.7,0.1-14.6c-0.9-13.2-1.5-26.4-2.3-39.6c-0.3-6.2,0.3-12.5-1.5-18.6c0.6-3.7,0.7-7.4,0-11
		C221.2,319.9,220.6,312.5,220.8,305z"/>
</g>
<g>
	<path fill="#32261B" d="M468.1,188.7c8.2-0.5,16.2-2.9,24.5-2.6c0,0.4-0.1,1-0.1,1.4c-2.8,0.5-5.7,1-8.5,1.6c-4.9,1.1-10,1.2-15,2
		c-8.6,1.2-17.2,2.9-25.9,3.7c-8,0.9-16.1,1.5-24,3.3c-10,2.4-20,4.7-30,7.1c-13,2.6-26.1,4.8-39.1,7.6c-13.1,3.1-26.4,5.3-39.6,7.6
		c-13.5,1.9-26.9,4.9-40.4,7.2c-6.6,1.4-13.4,1.6-20.1,2.5c-2.7,0.4-5.4,0.5-8.2,0.5c8.6-2.3,17.5-3.6,26.2-5.7
		c13.8-3.2,27.8-5.2,41.7-7.5c12.8-2.3,25.8-3.9,38.4-7.2c13.8-2.9,27.8-5.1,41.6-7.8c12.2-2.8,24.4-5.9,36.7-8
		c8.8-0.9,17.7-1.3,26.4-2.9C457.9,190.5,462.9,189,468.1,188.7z"/>
</g>
<g>
	<path fill="#745A3B" d="M169.8,187.5c1.8,2.8,1.3,6.3,1.7,9.4c0.9,15.1,1.9,30.2,2.5,45.4c-1.8,3.4-0.2,7.1,0.3,10.6
		c1,5,0.7,10.1,0.6,15.1c-0.1,6,1.5,12,1,18c-0.4,5,0.9,10,1,15c-0.4,7.9,1.4,15.7,1.2,23.6c0.1,3.3,0.4,6.7,1,9.9
		c-0.6,5.2,1.1,10.3,0.8,15.5c-0.4,5.7,1.3,11.3,1,17c-0.3,5,1.2,10,1,15c-0.1,3.1,0.1,6.3,0.5,9.4c0.3,2.3-0.8,4.4-1.1,6.6
		c0.3,1.1,0.9,2.2,1.3,3.3c0.1,0.3,0.3,0.9,0.4,1.2c-0.1,2.9,0,5.8,0.5,8.6c0.7,4.8,0,9.7,0.8,14.5c0.6,3.4,0.6,6.9,0.5,10.4
		c-0.1,3.4,0.8,6.7,1,10c0.3,2.9-1.5,5.4-2.7,7.9l-0.2,0.3l-0.3-1.4c-4,0.4-8-0.1-11.9-0.6c-0.5-1.1-0.9-2.2-1.1-3.4l0-0.8
		c2.5-4.6,2.2-10,2.2-15.1c0-17,0-34,0-51c0-2.6-0.2-5.3-0.4-7.9c-1.5-18-2.6-36.1-4.2-54.1c-0.1-9-1.2-17.9-1.3-26.9
		c-0.8-9-1.6-18-1.8-27.1c0-21.3-0.8-42.7-0.8-64c0-4.7-0.5-9.4-0.5-14C165.4,187.9,167.6,187.8,169.8,187.5z"/>
</g>
<g>
	<path fill="#6D553A" d="M174.1,190.7c4.6,5.6,8.5,11.7,12.4,17.8c9.5,16,20.1,31.4,29.8,47.2c8,13.6,16.7,26.6,25.1,40
		c2.7,4.4,4.6,9.3,7.4,13.7c1.8,2.9,3.6,5.7,5.4,8.6c4.6-0.2,9.2-0.6,13.9-0.9c2.6-0.2,5.3-0.4,7.7-1.4c1.6-1,2.9-2.5,4.3-3.8
		c1.1,2.1,2,4.3,2.9,6.6c-9.2,1.8-18.4,3.7-27.5,5.6c-0.6-2.3-1.3-4.7-3.8-5.6c-3.9-7.3-9.2-13.6-13.1-20.9
		c-1.3-2.1-2.1-4.5-3.9-6.2c-2.8-1-5.8-0.6-8.6-0.2c-1.9,0.4-4.4,0.9-4.8,3.2c0,2,0.5,3.9,0.8,5.8c-0.5,1.6-1.2,3.2-1.2,4.9
		c-0.1,7.5,0.4,15-0.2,22.4c-1.8-2.5-3.6-5.1-5.3-7.7c-2.3-3.4-5.3-6.4-6.8-10.3c-2.5-6.3-4.5-12.9-8.3-18.6
		c-4.4-6.6-8.7-13.3-13.1-19.9c-1.6-2.5-3.2-4.9-5.2-7.1c3.2,8.7,7.4,17.1,12.2,25c4.6,8.3,8.4,16.9,12.9,25.3
		c4.6,8.1,8.9,16.4,13.5,24.4c1.8,6,1.2,12.4,1.5,18.6c0.9,13.2,1.5,26.4,2.3,39.6c0.4,4.9,1.3,9.8-0.1,14.6
		c-1.5-3.8-3.9-7.1-5.9-10.6c-5.5-9.2-11-18.4-16.2-27.9c-8.2-16-15.7-32.2-24-48.1c0.2-7.9-1.5-15.7-1.2-23.6c-0.1-5-1.4-10-1-15
		c0.5-6-1.2-12-1-18c0.1-5,0.4-10.1-0.6-15.1c-0.5-3.5-2.1-7.2-0.3-10.6c1.9-5.8,2-12.2,1.8-18.3
		C174.6,212.9,173.6,201.8,174.1,190.7z"/>
	<path fill="#6D553A" d="M179.2,334.5c5.6,11,10.1,22.4,15.9,33.3c7.9,14.5,15.7,29,23.4,43.6c1.5,2.9,3.9,5.2,6.1,7.4
		c0.1-0.5,0.2-1.6,0.3-2.2c1.8,5.2,1.6,10.9,2.1,16.3c1.2,16,2.7,32,4.1,48c0.4,4.8,1.6,9.7,0.2,14.5c-6-13-11.9-26.1-17.8-39.1
		c-6.3-14.9-14.2-29-21.7-43.3c-3-5.4-5.6-11.1-8.9-16.4c-0.1,1.6-0.3,3.1-0.4,4.7c-0.4-1.1-1-2.2-1.3-3.3c0.3-2.2,1.4-4.4,1.1-6.6
		c-0.4-3.1-0.6-6.3-0.5-9.4c0.1-5-1.3-10-1-15c0.3-5.7-1.4-11.3-1-17C180.3,344.8,178.7,339.7,179.2,334.5z"/>
	<path fill="#6D553A" d="M183.1,402.5c5.8,11,11.4,22.2,17,33.3c2.4,4.6,5,9.2,7.1,14c8.5,18.3,16.9,36.6,25.2,55
		c1.1,2.6,2.1,5.4,2.3,8.2c1.4,15,3.1,30,4.9,45c0.4,3,0.2,6.1-0.1,9.2c-9.9-18.7-18.5-38-27.4-57.2c-8.5-19.2-18.2-38-28.9-56.1
		c1.2-2.5,3-5,2.7-7.9c-0.3-3.3-1.1-6.6-1-10c0.1-3.5,0-7-0.5-10.4c-0.9-4.8-0.1-9.7-0.8-14.5C183.2,408.3,183.1,405.4,183.1,402.5z
		"/>
</g>
<g>
	<path fill="#2F2419" d="M505.8,196.9c2.5,0.4,4.9,1.2,7.1,2.3c8.9,4.1,17.9,7.8,26.7,12.2c5.2,2.6,10,6.1,15,8.9
		c14.5,8.5,29.2,16.8,44,24.9c6.4,3.5,13.3,6.3,18.9,11.1l-1.3,0.2c-2.5-0.2-5.1-0.3-7.2-1.6c-15.8-9.2-31.5-18.5-47.4-27.6
		c-9.8-5.6-20.1-10.5-30-16C523,206.6,514.1,202.3,505.8,196.9z"/>
	<path fill="#2F2419" d="M183.1,396.6c3.3,5.3,5.9,10.9,8.9,16.4c7.4,14.3,15.4,28.4,21.7,43.3c5.9,13.1,11.8,26.1,17.8,39.1
		c1.4,2.9,2.3,6.2,1,9.3c-8.3-18.4-16.7-36.7-25.2-55c-2.1-4.8-4.8-9.3-7.1-13.9c-5.7-11.1-11.2-22.3-17-33.3
		c-0.1-0.3-0.3-0.9-0.4-1.2C182.9,399.8,183,398.2,183.1,396.6z"/>
</g>
<g>
	<path fill="#2E2318" d="M714.7,220.9c8.6,2.9,17.1,6.7,24.1,12.6c-1.8,0.1-3.5,0.4-5.2,0.9c-0.7-0.7-1.4-1.3-2.1-2
		c-2.6-2.4-5.2-4.9-8.5-6.4C720,224.7,717.2,223.1,714.7,220.9z"/>
	<path fill="#2E2318" d="M178.2,324.6c8.3,15.9,15.9,32.2,24,48.1c5.1,9.4,10.7,18.6,16.2,27.9c2,3.5,4.5,6.8,5.9,10.6
		c-0.2,1.9,0.1,3.7,0.7,5.5c-0.1,0.5-0.2,1.6-0.3,2.2c-2.3-2.3-4.6-4.6-6.1-7.4c-7.7-14.6-15.4-29.1-23.4-43.6
		c-5.8-10.8-10.4-22.3-15.9-33.3C178.6,331.3,178.3,327.9,178.2,324.6z"/>
</g>
<g>
	<path fill="#917B5D" d="M738.9,233.5c3.8-0.1,7.3-1.9,11.1-2.3c4.4,1.4,8.9,2.6,13.3,3.9l-0.4,1c-1.9,0.8-3.9,1.5-5.9,1.9
		c-16.4,2.9-32.7,6.1-49,9.4c-24.5,5.3-49.5,8-74,13.5c-13.8,2.5-27.8,4.3-41.7,6.7c-24.1,4.9-48.4,8.6-72.4,13.7
		c-20.3,3.8-40.7,7-61,11c-4.4,0.9-8.6,2-12.9,3.2c-36,9.1-72.6,16-109.1,22.9c-6.1,1.3-12.4,1.8-18.6,2.3
		c-19.5,3-38.9,6.7-58.4,10.3c-5.1,0.8-9.4,3.6-13.7,6.4c-0.3,1.2-0.6,2.4-0.8,3.6c-3-4.1-7.7-6.6-11.4-10c-0.1-0.4-0.1-1.3-0.2-1.8
		c7.1-1.9,14.2-3.4,21.4-5c9.2-1.9,18.3-3.8,27.5-5.6c17.3-3.5,34.7-6.5,52.1-9.7c50.2-9.2,100.4-18.9,150.6-28.1
		c10.6-2.2,21.3-4,31.9-6.1c1.3-0.2,2.7-0.5,4-0.7c22.8-4.3,45.5-8.6,68.3-12.5c8.8-1.6,17.6-3,26.4-4.7l1.3-0.2
		c29.9-4.9,59.7-10.2,89.5-15.5c8.9-1.9,17.8-3.9,26.5-6.3C735.3,234,737.1,233.7,738.9,233.5z"/>
</g>
<g>
	<path fill="#B79B73" d="M757,237.9c2-0.4,4-1,5.9-1.9c0.6,2.5,0.8,5.1,1,7.7c-1.5,1.2-3.5,2.1-3.9,4.1c-0.1,3.4,0.4,6.7,0.3,10.1
		c0,4.7-1.2,9.3-2.2,13.9c-1.7,6.4-1.2,13.1-1.9,19.6c-0.4,9.2-2.4,18.3-2.2,27.5c-2.5,1.1-5.4,1.6-7.3,3.7c1.1,0.5,2.2,1,3.4,1.6
		c-4.6,23.2-8.2,46.6-13.8,69.6c-0.2,1.7-2.1,2.1-3.1,3.3c-0.6,1.5-0.2,3.2-0.2,4.9c0.5,5.4-0.3,10.7-1,16c-0.8,0-2.3,0-3.1,0
		c-2,2.3,0.3,4.7,1.1,7c-0.1,2.1-0.9,4.1-1.4,6.1c-3.2,11.5-7.8,22.8-7.6,34.9c-5.7,2.5-11.4,5.3-17.5,6.6
		c2.9-10.4,3.8-21.2,6.9-31.6c1.9-6.8,3.7-13.7,5.3-20.6c1.2-5.2,1.3-10.7,2.9-15.9c3.2-0.7,6.9-1.4,8.8-4.5c-1.8,0.4-3.5,0.7-5.3,1
		c-0.7,0.1-2,0.3-2.6,0.4c0.6-2.3,1.2-4.5,1.9-6.8l0.2-0.4c1.5-3.3,2.8-6.7,3.2-10.3c1.3-11,3.8-21.9,6.8-32.5
		c1.3-5.4,1.2-10.9,1.9-16.4c2.1-3.9,6.6-6.4,7.1-11.1c1.5-7.7,3.4-15.4,5.2-23c0.7-5.4,0.2-10.8,0.6-16.2c1.3-4.9,3.1-9.7,5.6-14.2
		c1.4-2.9,3.2-5.6,4.1-8.7c0.5-3.6,0.1-7.3,0.2-11c-4.4-1.2-9-2.7-13.5-1.5c-3.9,0.6-7.1,3.1-9.8,5.8c-1.6,2.6-2.1,5.7-3,8.6
		c-0.8,2.4-2,4.6-2.6,7c-2.5,12.2-4.3,24.6-5.1,37c0,2.6-2,4.5-2.5,7c-0.4,1.8-0.5,3.7-0.8,5.6c-12.3,2.1-24.5,4.2-36.5,7.6
		c-12.3,2.9-24.7,5.3-37,8.3c-10,1.8-20.1,2.6-30.1,4c-5.1,0.8-10.1,2.5-15.1,3.8c-11.1,3-22.2,5.8-33.2,9.4
		c-11.8,3.2-23.9,5.2-35.8,8c-18.4,5.2-37.5,7-56.1,11.3c-12.3,3.3-24.7,6.4-37,9.8c-16.6,5-34,6.8-50.4,12.6
		c-7.4,2.3-15.1,3-22.7,4c-11.2,1.3-22.7,1.4-33.5,5.2c-4.8,1.4-8.8,4.5-13.5,6.2c-6.1,2.2-12.5,3.9-19,4.1c-3.2,0.1-6.4,0.5-9.6,1
		c-0.2-5.6-0.6-11.3-1.6-16.9c-3-17.9-2.7-36.1-3.8-54.2c-4.6,0.2-9.3,0.7-13.9,0.9c-6,0.4-12.2-0.6-18,1.2c0,1.2-0.1,2.4-0.1,3.7
		c-0.9,0.8-1.8,1.6-2.7,2.4c-0.6,0.5-1.6,1.4-2.2,1.9c0.1,7.3,0,14.6,0.1,21.9c0.7,10.3,1.7,20.6,2.5,30.9c0.4,5.9,2.5,11.5,4.3,17
		c-2.1-0.1-4.2-0.2-6.2-1.2c0.5-5.5,0.1-11-1.4-16.3c-2.2-8-0.5-16.4-2.2-24.4c-1.3-6.6-1.3-13.3-1.3-20c-0.2-7.5,1.4-14.8,2.7-22.2
		c0.2-1.2,0.5-2.4,0.8-3.6c4.2-2.7,8.6-5.6,13.7-6.4c19.4-3.6,38.8-7.3,58.4-10.3c6.2-0.5,12.5-1,18.6-2.3
		c36.5-6.9,73.1-13.7,109.1-22.9c4.3-1.1,8.5-2.3,12.9-3.2c20.3-3.9,40.7-7.2,61-11c24-5.1,48.4-8.8,72.4-13.7
		c13.9-2.4,27.8-4.2,41.7-6.7c24.5-5.5,49.5-8.2,74-13.5C724.3,244.1,740.6,240.8,757,237.9z"/>
	<path fill="#B79B73" d="M688,329.4c10-2,20-3.7,29.9-5.8c-0.4,7.4-5.2,13.4-6.9,20.4c-1.7,7-4.1,13.7-6.4,20.4
		c-2.1,7.4-3.4,15-5,22.6c-1.4,6.4-1.7,13-2.9,19.5c-11.7,2.4-23.3,5.3-34.8,8.2c-19.3,4-38.6,7.5-58,11c-6.4,1-12.7,2.6-18.9,4.2
		c-9.5,2.5-19.2,4.8-28.3,8.5c-6.1,2.1-12.4,3.4-18.7,5c-16.3,4-32.6,7.8-49,11.1c-4.6,1-9.4,1.4-14,2.4
		c-31.5,7.2-62.7,15.6-94,23.4c-5.8,1.4-11.4,3.3-17,5c-24,7.8-47.9,15.7-71.7,24c-1.1-5.5-1.1-11.1-1.7-16.6
		c-0.6-8.2-1.9-16.4-1.5-24.6c0.4-13.2,0.8-26.5,0.9-39.7c0-1.6-0.1-3.1-0.1-4.6c3.8-1,7.7-0.7,11.5-1.6c5.9-2.5,11.4-6.1,17.7-7.8
		c6.9-2,13.9-4.1,21-4.6c12.8,0.6,24.4-5.7,37-7c3.6-0.3,7.4,1,10.9-0.3c7.6-2.5,15.3-4.8,23.1-6.7c3.9-1,8-0.9,11.9-1.5
		c6.1-1.1,12-2.9,18.1-4c4.7-0.9,9.5,0,14.1-1.2c10.1-2.5,19.6-6.9,29.7-9.5c8.4-2.3,16.7-4.6,25.1-6.7c13.7-3.1,27.7-4.6,41-9
		c4.9-1.7,10.1-2,15.1-3.5c9.1-2.6,18-5.7,27.1-8.2c8.3-2.3,16.4-5.3,24.9-6.7c11-1,21.7-4.3,32.4-6.9
		C662.8,335.1,675.4,332.2,688,329.4z"/>
	<path fill="#B79B73" d="M642.1,423.9c18.1-4.5,36-9.3,54.3-12.9c-0.2,1.7-0.3,3.5-0.7,5.2c-2.5,9.6-4.8,19.2-7.2,28.8
		c-2.3,10.6-4,21.4-6.5,32c-3,1-5.9,2.4-8.9,3.5c-4.9,1.6-10.1,2.6-14.7,5c-2.3,1.2-4.7,2.3-7.2,2.9c-7.4,1.9-14.8,3.4-22.3,5
		c-5.7,1.2-11.5,1.7-17.1,3.5c-7.5,2.7-15.2,5.1-23,6.8c-8.3,1.5-15.8,5.3-23.8,7.7c-9.7,2.8-19.6,4.6-29.4,7.1
		c-12.3,3.4-24,8.5-36.4,11.1c-38.4,10.4-76.7,20.8-115.1,31.2c-9.9,2.8-20,4.9-30.1,7.4c-5.5,1.4-11.1,2.2-16.2,4.5
		c-8.7,4.2-18.6,3.3-27.7,6.2c-3.3,1-6.6,2.3-9.8,3.6c-0.3-2-0.6-4-0.9-5.9c-2.6-17.9-5.7-35.7-8.3-53.5c-0.2-3.7,0.8-7.2,1.2-10.9
		c12.9-2.7,25.9-5.4,38.8-8.2c19.4-5.2,38.7-10.7,58-15.9c24.3-5.4,48.6-10.5,72.9-15.8c14.4-4,28.5-8.8,42.9-12.5
		c16.9-3.8,33.4-8.9,50.1-13.2C584.1,439.3,612.9,431,642.1,423.9z"/>
	<path fill="#B79B73" d="M247.1,433.8c2.2-0.7,4.4-1.5,6.6-2.3c1.5,7.5-1.4,15-0.2,22.5c1.1,12,2.2,24,3.3,36
		c0.5,8.3,0.6,16.6,0.9,24.9c-2.7-0.3-5.3-0.6-7.9-1.2c0.8-3.5,1-7.1,0.6-10.6c-0.8-6,0.7-12-0.3-18c-2.1-13.6-2.1-27.3-3.7-41
		C245.9,440.6,246.6,437.2,247.1,433.8z"/>
	<path fill="#B79B73" d="M704.6,488.2c2.7-1.9,7.5-2.6,9.6,0.6c-0.2,5.3-2.1,10.2-3.5,15.2c-0.9,2.9-0.6,5.9-0.6,8.9c-6,3-12,6-18,9
		c-0.4,1.3-0.7,2.6-1.1,4c-1.3,0.6-2.6,1.2-3.9,1.7c0.9-1,1.8-2.1,2.7-3.1c2.3-4.1,2.4-9,3.6-13.5c1.5-6.3,2.5-12.7,4-19
		C699.5,490.6,702.4,489.9,704.6,488.2z"/>
	<path fill="#B79B73" d="M635,499c13.4-2,27-3.9,40.6-2.8c-0.1,0.6-0.2,2-0.3,2.6c-1.4,9.2-5.3,17.9-6.9,27.1
		c-7.6,1.8-14.9,4.7-22.4,7c-18.3,5-36.8,9.4-54.7,15.5c-8.8,3.4-17.9,6.2-26.9,9.1c-24.4,7.6-48.9,15-73.4,22.5
		c-7,2.3-14.1,4.4-21.1,7c-30.6,10.3-61.2,20.4-91.9,30.3c-16.7,5.6-33.5,10.7-50.1,16.5c4.3-0.8,8.4-2.3,12.6-3.6
		c28.5-8.7,57-17.3,85.5-26.3c30.9-10.5,62-20.1,93.1-29.9c26.8-8,53.3-16.7,79.9-25c22.8-6.6,45.6-13.5,68.6-19.8
		c-0.1,0.7-0.3,2.1-0.4,2.8c-0.5,1.5-1.2,3-1.9,4.4c-7.5,1-13.9,5.3-21.1,7.2c-7.6,0.1-14,4.5-21.2,6.3c-3.2,0.8-5.5,3.5-8.6,4.6
		c-8.2,3-17.1,3.1-25.5,5.5c-9.9,2.5-18.6,8-28.1,11.6c-5.8,2.3-11.9,3.5-17.8,5.2c-27.2,8-53.8,17.7-80.6,26.7
		c-30.8,9.4-61.9,18-92.5,28.1c-13.2,4-26.6,7.3-39.9,11.1c-2.7,0.8-5.3,1.9-8,2.8c-4.1,1.2-7.5,3.9-11.4,5.6
		c-1-7.1-2.7-14.1-3.9-21.2c-2.2-14.1-3.9-28.3-5.8-42.5c3.9-1.5,8-2.1,12-2.5c2.5-2.3,4.4-5.9,8.1-6.5c7-1.4,14-2.6,21.1-3.8
		c6.8-1,12.8-4.4,19.4-6c7.9-1.8,15.9-3,23.6-5.5c35.4-10.3,70.9-20.6,106.3-30.9c3.8-1.1,7.6-2.4,11.6-3c12.2-2,23.6-7.7,36.1-8.5
		c6.5-0.8,12.4-3.7,18.9-4.7c7.8-0.8,15.3-3.2,23-4.7C599.1,507.9,616.6,501.5,635,499z"/>
	<path fill="#B79B73" d="M254.2,523.9c1.2-0.5,2.4-1,3.6-1.5c0.2,3.2,0.3,6.4,0.2,9.6c-0.2,6.4,1.1,12.8,2.1,19.1
		c0.7,4.8,2.7,9.3,3.3,14.1c1.4,9.5,2.7,19.1,4.2,28.7c-3.5,1.1-7.1,1.3-10.7,1.2c0-0.4,0-1.3-0.1-1.7c0.3-5.7,2-11.6,0.3-17.2
		c-1.3-5-3-9.9-3.4-15.1c-1-12.2-0.9-24.4-0.7-36.6L254.2,523.9z"/>
	<path fill="#B79B73" d="M264.1,599c1.4-0.6,2.8-0.9,4.2-1.3c2.6,15.6,6.2,31.1,9.1,46.7c0.5,2.6,0.6,5.2,0.3,7.8
		c-0.8,0.7-1.6,1.4-2.4,2.1c-4.3-0.8-8.4-2.4-12.3-4.3c-0.3-2.5-1-5-1.5-7.5c-0.4-5.2-1.5-10.4-1.9-15.6c-0.7-8.1-1.7-16.2-2.2-24.4
		c0.3,1,1,2.9,1.3,3.8C260.4,603.9,261.8,601.1,264.1,599z"/>
</g>
<g>
	<path fill="#30261A" d="M472.7,247.6c5.1-1.4,10.3-2.2,15.6-2.5c-0.1,0.8-0.2,2.3-0.2,3c-5.8-0.2-11.7-0.1-17.4,1.5
		c-19,3.8-37.7,9.5-57,12c-11.7,2-23.3,4.2-35,5.9c-10.6,2-21,4.6-31.6,6.7c-25.2,3.9-50.2,9.1-75.4,13.4c-2.5,0.5-4.9,1.1-7.4,1.5
		l-0.5-0.7c3.6-1.3,7.3-2.5,11.1-3c11.5-1.3,22.8-3.7,34.1-6.4c20.6-4.3,41.4-6.9,62-11.1c19.6-4,39.3-7.2,59-10.9
		C444.2,253.8,458.5,250.8,472.7,247.6z"/>
</g>
<g>
	<path fill="#7E5D49" d="M742.4,249.6c4.6-1.3,9.1,0.3,13.5,1.5c0,3.6,0.3,7.3-0.2,11c-0.9,3.1-2.6,5.8-4.1,8.7
		c-2.5,4.5-4.3,9.3-5.6,14.2c-6.8,0.1-13.4,1.5-20.1,2.4c0.9-5.8,1.8-11.5,3-17.2c1.1-4.9,4.8-9.4,3.5-14.6
		C735.3,252.6,738.5,250.1,742.4,249.6z"/>
	<path fill="#7E5D49" d="M725.3,293.7c6.9,2,13.3,5.3,20.3,7.4c-1.8,7.6-3.7,15.3-5.2,23c-0.5,4.7-5,7.3-7.1,11.1
		c-0.7,5.5-0.6,11-1.9,16.4c-3,10.7-5.5,21.5-6.8,32.5c-0.4,3.6-1.6,7-3.2,10.3c-2.6-9.7-3.4-19.8-4.9-29.8
		c-0.8-4.8,1.3-9.5,3.5-13.6c0.9-1.9,2.2-3.8,1.9-6c-0.7-4.7-2.3-9.2-4.3-13.5c2.1-5,2.7-10.3,3.5-15.6c0.3-3.2,2.6-5.8,2.8-9
		C724.3,302.5,724.7,298.1,725.3,293.7z"/>
	<path fill="#7E5D49" d="M698.6,408.9c9.5-0.7,16-8.3,22.7-14.2c-0.7,2.2-1.3,4.5-1.9,6.8c0.7-0.1,2-0.3,2.6-0.4
		c-1,0.4-1.9,0.7-2.8,1.1c-0.2,0.6-0.5,1.8-0.6,2.3c-1.6,5.2-1.7,10.6-2.9,15.9c-1.6,6.9-3.3,13.8-5.3,20.6
		c-3.1,10.4-4.1,21.2-6.9,31.6c-0.7,2.1-1.7,4-2.8,5.9c-2.1,3.5-2.4,7.7-3,11.6c2.4-0.4,4.6-1.2,6.9-2c-2.2,1.7-5.1,2.4-7.2,4
		c-1.6,6.3-2.6,12.7-4,19c-1.1,4.5-1.3,9.3-3.6,13.4c-3.5-1.1-7.1-1.4-10.8-1.7c-2.7-0.1-4.8-1.8-7-3.1c0.7-7.2,4.9-13.7,4.9-21
		c0.1-9.9,5.8-18.4,7.8-27.8c1.7-8.3,3.3-16.7,4.9-25c2.6-11.9,6.1-23.6,8.6-35.5C698.2,410.1,698.5,409.3,698.6,408.9z"/>
</g>
<g>
	<path fill="#241C11" d="M486.3,252.1c0.4-0.4,1.2-1.1,1.6-1.5c6.7,4,13.2,8.4,19.6,12.9c4.6,3.6,9.2,7,14.1,10.2
		c-1.4,0.2-2.7,0.5-4,0.7C507.5,266.5,496.5,259.8,486.3,252.1z"/>
</g>
<g>
	<path fill="#574935" d="M732.6,255.4c1.3,5.2-2.4,9.8-3.5,14.6c-1.2,5.7-2.2,11.5-3,17.2c-0.3,2.1-0.5,4.3-0.8,6.4
		c-0.6,4.4-1,8.9-1.3,13.3c-0.2,3.2-2.4,5.8-2.8,9c-0.8,5.2-1.4,10.6-3.5,15.6c-4.3,8.3-5.9,17.5-9.1,26.1
		c-3.4,8.8-4.6,18.2-6.6,27.4c-1.7,7.9-2.2,15.9-3.4,23.8c-0.1,0.4-0.4,1.2-0.5,1.6c-0.6,0.1-1.2,0.2-1.7,0.3
		c-18.2,3.7-36.2,8.5-54.3,12.9c-29.2,7.1-58,15.5-87.1,22.7c-16.7,4.4-33.2,9.4-50.1,13.2c-14.5,3.7-28.6,8.5-43,12.5
		c-24.3,5.3-48.6,10.5-72.9,15.8c-19.4,5.2-38.7,10.7-58.1,15.9c-12.9,2.8-25.8,5.5-38.8,8.2c0.1-0.9,0.1-1.7,0.1-2.6
		c23.8-8.3,47.7-16.3,71.7-24c5.6-1.8,11.3-3.6,17-5c31.3-7.8,62.5-16.1,94-23.4c4.6-1,9.4-1.4,14-2.4c16.4-3.4,32.7-7.2,49-11.1
		c6.2-1.6,12.6-3,18.7-5c9.2-3.7,18.8-6,28.3-8.5c6.2-1.7,12.5-3.2,18.9-4.2c19.4-3.6,38.7-7.1,58-11c11.5-3,23.1-5.9,34.8-8.2
		c1.2-6.5,1.5-13.1,2.9-19.5c1.6-7.5,2.9-15.1,5-22.6c2.3-6.8,4.8-13.5,6.4-20.4c1.7-7,6.5-13,6.9-20.4c0.3-1,0.5-2,0.7-3
		c0.3-1.9,0.4-3.7,0.8-5.6c0.5-2.5,2.5-4.4,2.5-7c0.8-12.5,2.6-24.8,5.1-37c0.5-2.5,1.8-4.7,2.6-7C730.5,261.1,731,258,732.6,255.4z
		"/>
</g>
<g>
	<path fill="#3C2F1C" d="M182,263.8c1.9,2.2,3.6,4.6,5.2,7.1c4.4,6.6,8.7,13.3,13.1,19.9c3.8,5.7,5.8,12.3,8.3,18.6
		c1.5,3.9,4.5,6.9,6.8,10.3c1.8,2.6,3.5,5.2,5.3,7.7c0.7,3.6,0.7,7.4,0,11c-4.6-8.1-8.9-16.3-13.5-24.4c-4.5-8.3-8.3-17-12.9-25.3
		C189.4,280.8,185.2,272.4,182,263.8z"/>
</g>
<g>
	<path fill="#70513F" d="M726.1,287.2c6.7-0.9,13.3-2.2,20.1-2.4c-0.4,5.4,0,10.8-0.6,16.2c-6.9-2-13.3-5.3-20.3-7.4
		C725.5,291.5,725.8,289.4,726.1,287.2z"/>
</g>
<g>
	<path fill="#7D6649" d="M221.2,294.3c0.4-2.3,2.9-2.8,4.8-3.2c2.8-0.4,5.9-0.8,8.6,0.2c1.8,1.7,2.6,4.2,3.9,6.2
		c3.9,7.3,9.2,13.6,13.1,20.9c-3.9,0.7-7.6,2.3-11.6,2.4c-4-1.7-6.9-5-9.8-8c-3.6-3.6-6.1-8.2-8.2-12.8
		C221.7,298.1,221.3,296.2,221.2,294.3z"/>
</g>
<g>
	<path fill="#564937" d="M682.1,328.2c12-3.4,24.3-5.5,36.5-7.6c-0.2,1-0.5,2-0.7,3c-9.9,2.1-20,3.8-29.9,5.8
		c-12.6,2.8-25.2,5.7-37.6,9.2c-10.7,2.7-21.4,5.9-32.4,6.9c-8.5,1.5-16.6,4.4-24.9,6.7c-9.1,2.5-18,5.7-27.1,8.2
		c-4.9,1.5-10.2,1.8-15.1,3.5c-13.3,4.4-27.3,6-41,9c-8.4,2.1-16.8,4.5-25.1,6.7c-10.1,2.6-19.6,7-29.7,9.5
		c-4.6,1.2-9.4,0.4-14.1,1.2c-6.1,1.1-12,2.9-18.1,4c-4,0.7-8,0.5-11.9,1.5c-7.8,1.9-15.5,4.3-23.1,6.7c-3.5,1.3-7.3,0-10.9,0.3
		c-12.5,1.2-24.2,7.5-37,7c-7.2,0.5-14.1,2.6-21,4.6c-6.2,1.8-11.7,5.4-17.7,7.8c-3.8,0.8-7.7,0.6-11.5,1.6c-0.1-2.7-0.3-5.3-0.5-8
		c3.2-0.5,6.4-0.9,9.6-1c6.5-0.2,12.9-1.9,19-4.1c4.7-1.7,8.7-4.8,13.5-6.2c10.8-3.8,22.2-3.9,33.5-5.2c7.6-1,15.4-1.7,22.7-4
		c16.4-5.8,33.8-7.6,50.4-12.6c12.3-3.4,24.7-6.5,37-9.8c18.6-4.3,37.7-6.1,56.1-11.3c11.9-2.8,24-4.8,35.8-8
		c10.9-3.6,22.1-6.4,33.2-9.4c5-1.3,9.9-3,15-3.8c10-1.4,20.1-2.2,30.1-4C657.4,333.5,669.8,331.1,682.1,328.2z"/>
	<path fill="#564937" d="M239,420.8c3,0.8,5.9,1.8,8.8,3c1.9,0.9,4.1,1.1,6.2,1.2c1.2,2.1,1,4.5-0.3,6.5c-2.2,0.8-4.4,1.6-6.6,2.3
		c-1.2,0.4-2.5,0.7-3.7,1c-1.1-1-2.2-2.1-3.3-3.1C240,428,239.5,424.4,239,420.8z"/>
</g>
<g>
	<path fill="#72624B" d="M234.2,330.8c3.7,3.4,8.4,5.9,11.4,10c-1.3,7.3-2.9,14.7-2.7,22.2c0,6.7,0,13.4,1.3,20
		c1.7,8.1,0,16.5,2.2,24.4c1.5,5.3,1.9,10.8,1.4,16.3c-2.9-1.2-5.8-2.2-8.8-3c-1.7-11.5-1.7-23.2-2.8-34.8c-0.2-8-1.2-16-1.2-24
		C235.1,351.6,235.2,341.2,234.2,330.8z"/>
	<path fill="#72624B" d="M240,431.7c1.1,1,2.2,2.1,3.3,3.1c1.2-0.3,2.5-0.7,3.7-1c-0.5,3.4-1.1,6.8-0.7,10.3
		c1.6,13.6,1.6,27.4,3.7,41c1,6-0.5,12,0.3,18c0.5,3.5,0.3,7.1-0.6,10.6c-1.1-0.4-2.2-0.8-3.2-1.1c-1.1-3.4-2.5-6.9-2.6-10.5
		c-0.2-10,0.2-20-0.2-30c-1.2-11-2.5-21.9-3.6-32.9C240,436.6,240,434.1,240,431.7z"/>
	<path fill="#72624B" d="M245.8,519.7c3,1,5.7,2.6,8.4,4.2l-1.1,0.5c-0.2,12.2-0.3,24.4,0.7,36.6c0.3,5.2,2,10.1,3.3,15.1
		c1.7,5.6,0,11.5-0.3,17.2c-1.5-2.6-3.1-5.2-3.3-8.2c-2.4-19.7-5-39.3-7.5-59C245.8,523.9,245.8,521.8,245.8,519.7z"/>
</g>
<g>
	<path fill="#69564B" d="M708.6,357.7c3.2-8.6,4.8-17.9,9.1-26.1c2,4.3,3.6,8.8,4.3,13.5c0.3,2.2-1,4.1-1.9,6
		c-2.3,4.1-4.4,8.7-3.5,13.6c1.4,10,2.3,20,4.9,29.8l-0.2,0.4c-6.7,5.8-13.2,13.4-22.7,14.2c1.2-7.9,1.7-16,3.4-23.8
		C704,375.9,705.2,366.5,708.6,357.7z"/>
</g>
<g>
	<g>
		<path fill="#735442" d="M270,345.9c4.6-0.2,9.3-0.7,13.9-0.9c1.1,18.1,0.8,36.3,3.8,54.2c1,5.6,1.4,11.2,1.6,16.9
			c0.2,2.6,0.3,5.3,0.5,8c0.1,1.5,0.1,3.1,0.1,4.6c-2.5,1-4.9,2.5-6.7,4.6c0.5,3.3,1.5,6.9,0.1,10.2c-1.8,4.1-7,5.2-8.8,9.3
			c-1.6,3.8,0,8.2,2.7,11.1c3.3,2.8,7.5,4.3,11.8,4.6c-0.4,8.2,1,16.4,1.5,24.6c0.6,5.5,0.6,11.1,1.7,16.6c0,0.9,0,1.7-0.1,2.6
			c-0.4,3.6-1.4,7.2-1.2,10.9c2.6,17.9,5.8,35.6,8.3,53.5c-3.7,3.3-4.8,8.3-7.4,12.5c-1.3,2.3-3.6,3.8-5.6,5.3
			c-4.1,2.9-8.4,5.7-12.4,8.7c-0.7-1.5-1.4-2.9-2-4.4c-2-11.2-3.5-22.4-5.1-33.7c-0.7-4.6-2.5-9-3.2-13.6c-1-5.8-1.9-11.5-2.5-17.3
			c3.1-2.8,6.3-5.7,8.9-9c2.1-2.7,4.9-4.8,6.3-8c-5.3,0.5-10,3.1-14.9,4.9c-1.8-9.9-0.8-19.9-1.4-29.9c-1.3-14-2.5-28-3.9-42
			c0.5-6.3,1.6-12.6,1.9-19c-0.1-3.1-1.4-6-2.1-8.9c-0.9-2.9-0.5-6-1.1-9c-0.7-2.4-2.4-4.5-2.5-7.1c-0.6-8.4-1.3-16.7-2.1-25
			c-0.4-7.3,0-14.7-0.1-22c0-2-0.5-3.9-1-5.8c0.9-0.8,1.8-1.6,2.7-2.4c0-1.2,0.1-2.4,0.1-3.7C257.9,345.3,264,346.3,270,345.9z
			 M267.2,363.3c-0.8,1.1-2.5,0.8-2.3,2.6l-0.7,0.4c0,1.1,0,2.3,0,3.4c0.9,1.2,1.4,2.5,3,3.1c1.1,0,2.3-0.1,3.4-0.1
			c1-0.7,1.3-2.1,2.1-3c0-1.1,0-2.3,0-3.4c-0.6-1.5-1.7-2.2-3-3C269.1,363.3,267.9,363.3,267.2,363.3z M275.2,479.2
			c-1.5,1.1-3,2.8-2.7,4.8c0.4,2.6,2.4,5.8,5.5,4.9c4.2-0.5,5.3-6.7,2.3-9.3C279,478.4,276.7,478,275.2,479.2z M276.4,569.4
			c-3.9,1.8-4.7,7.9-1.1,10.4c3.4,3.2,9.4-0.4,8.8-4.8C284.5,571.1,280,567.7,276.4,569.4z"/>
	</g>
	<path fill="#735442" d="M306.7,629.9c1.2,7.1,2.9,14.1,3.9,21.2c0.1,0.7,0.4,2.2,0.5,2.9c-9.7,2.3-19.3,4.7-29,7
		c-2.7-2.8-6.4-4-9.8-5.6c0.8-0.3,2.3-0.8,3-1c0.8-0.7,1.6-1.4,2.4-2.1c0.4,0.2,1.1,0.7,1.5,0.9c2.3-0.4,3-3.1,2.9-5.1
		c-0.3-5-2-9.8-2-14.8c5.1-1.7,10.5-1.4,15.7-1.1c-1.4,2.1-3.3,4.2-3.5,6.9c0.2,2.2,1.9,4,3.7,5c1.9,0.4,4.3,1.5,6,0
		c2.6-1.8,2-5.6,0.6-8c-0.5-1.2-1.2-2.4-1.4-3.7C302.9,631.1,304.9,630.6,306.7,629.9z"/>
</g>
<g>
	<path fill="#624635" d="M247,355.1c0.6-0.5,1.6-1.4,2.2-1.9c0.5,1.9,0.9,3.8,1,5.8c0.1,7.3-0.2,14.7,0.1,22
		c0.8,8.3,1.5,16.7,2.1,25c0.1,2.6,1.8,4.7,2.5,7.1c0.5,3,0.2,6,1.1,9c0.8,2.9,2,5.8,2.1,8.9c-0.4,6.4-1.4,12.7-1.9,19
		c1.3,14,2.6,28,3.9,42c0.6,10-0.4,20,1.4,29.9c4.9-1.8,9.6-4.3,14.9-4.9c-1.4,3.1-4.2,5.3-6.3,8c-2.6,3.3-5.8,6.2-8.9,9
		c0.6,5.8,1.5,11.6,2.5,17.3c0.8,4.6,2.6,9,3.2,13.6c1.6,11.2,3.1,22.5,5.1,33.7c0,2.2,0.1,4.4,0.9,6.5c1.9,5.8,2.5,12,4,18
		c1.3,4.9,1.1,10,2.1,14.9c0.9,5,2.8,10.3,0.3,15.1c-0.4-0.2-1.1-0.7-1.5-0.9c0.3-2.6,0.2-5.2-0.3-7.8c-2.9-15.6-6.5-31.1-9.1-46.7
		c-0.2-1.3-0.5-2.6-0.7-3.9c-1.5-9.5-2.8-19.1-4.2-28.7c-0.6-4.8-2.7-9.3-3.3-14.1c-1-6.3-2.2-12.6-2.1-19.1
		c0.1-3.2-0.1-6.4-0.2-9.6c0-2.5,0.1-5.1,0-7.6c-0.4-8.3-0.5-16.6-0.9-24.9c-1.1-12-2.2-24-3.3-36c-1.2-7.5,1.7-15,0.2-22.5
		c1.2-2.1,1.5-4.4,0.3-6.5c-1.9-5.5-3.9-11.1-4.3-17c-0.9-10.3-1.8-20.6-2.5-30.9C247,369.7,247.1,362.4,247,355.1z"/>
</g>
<g>
	<path fill="#886550" d="M267.2,363.3c0.6,0,1.9,0,2.5,0c1.3,0.8,2.4,1.5,3,3c0,1.1,0,2.3,0,3.4c-0.8,1-1,2.3-2.1,3
		c-1.1,0-2.3,0-3.4,0.1c-1.6-0.6-2-1.9-3-3.1c0-1.1,0-2.3,0-3.4l0.7-0.4C264.7,364.1,266.5,364.4,267.2,363.3z"/>
	<path fill="#886550" d="M739.8,269c0.6,0,1.9,0,2.5,0c1.3,0.8,2.4,1.5,3,3c0,1.1,0,2.3,0,3.4c-0.8,1-1,2.3-2.1,3
		c-1.1,0-2.3,0-3.4,0.1c-1.6-0.6-2-1.9-3-3.1c0-1.1,0-2.3,0-3.4l0.7-0.4C737.3,269.8,739,270,739.8,269z"/>
	<path fill="#886550" d="M298.2,635c1.5,0.3,3,0.6,4.5,1c1.3,2.4,2,6.2-0.6,8c-1.7,1.5-4.1,0.4-6,0c-0.5-1.9-0.8-3.8-0.8-5.7
		C295.9,637,297,636,298.2,635z"/>
</g>
<g>
	<path fill="#483723" d="M156,369.1c0.8-1,1.5-1.9,2.2-2.9c0.4,0.5,1.3,1.4,1.7,1.9c1,8.2,1.4,16.5,1.6,24.7
		c-0.4,0.4-1.1,1.3-1.5,1.7C158.8,386,157.4,377.5,156,369.1z"/>
</g>
<g>
	<path fill="#66563E" d="M722,401.1c1.8-0.3,3.5-0.7,5.3-1c-1.9,3.1-5.5,3.8-8.8,4.5c0.2-0.6,0.5-1.8,0.6-2.3
		C720.1,401.9,721,401.5,722,401.1z"/>
</g>
<g>
	<path fill="#3C3224" d="M696.4,410.9c0.6-0.1,1.1-0.2,1.7-0.3c-2.5,11.9-6,23.6-8.6,35.5c-1.6,8.3-3.2,16.7-4.9,25
		c-1.9,9.5-7.7,18-7.8,27.8l-1.5,0c0.1-0.6,0.2-2,0.3-2.6c-13.6-1.1-27.2,0.8-40.6,2.8c-18.4,2.5-35.9,9-54.1,12.5
		c-7.7,1.5-15.2,4-23,4.7c-6.4,0.9-12.4,3.9-18.8,4.7c-12.4,0.7-23.9,6.4-36.1,8.5c-4,0.6-7.7,1.9-11.6,3
		c-35.4,10.3-70.9,20.6-106.3,30.9c-7.7,2.5-15.8,3.6-23.6,5.5c-6.6,1.6-12.7,5-19.4,6c-7,1.1-14.1,2.4-21.1,3.8
		c-3.6,0.6-5.6,4.2-8.1,6.5c-4.1,0.4-8.2,0.9-12,2.5c-0.2-1.7-0.4-3.3-0.6-4.9c3.2-1.3,6.5-2.5,9.8-3.6c9-2.9,19-2,27.7-6.2
		c5.2-2.3,10.8-3.1,16.2-4.5c10-2.4,20.1-4.5,30.1-7.3c38.4-10.4,76.7-20.8,115.1-31.2c12.5-2.6,24.2-7.8,36.4-11.1
		c9.8-2.5,19.7-4.3,29.4-7.1c8-2.4,15.6-6.2,23.8-7.7c7.8-1.7,15.5-4.1,23-6.8c5.5-1.8,11.4-2.3,17.1-3.5c7.4-1.6,14.9-3.2,22.3-5
		c2.5-0.6,4.9-1.7,7.2-2.9c4.6-2.4,9.8-3.4,14.7-5c3-1.1,5.9-2.4,8.9-3.5c2.4-10.6,4.2-21.4,6.5-32c2.4-9.6,4.8-19.2,7.2-28.8
		C696,414.4,696.2,412.6,696.4,410.9z"/>
	<path fill="#3C3224" d="M256.9,595c3.6,0.1,7.2-0.1,10.7-1.2c0.2,1.3,0.4,2.6,0.7,3.9c-1.4,0.4-2.9,0.7-4.2,1.3
		c-2.3,2-3.7,4.8-5.3,7.3c-0.3-1-1-2.9-1.3-3.8C257.2,600,257,597.5,256.9,595z"/>
</g>
<g>
	<path fill="#624C3F" d="M283.3,433.2c1.8-2.1,4.1-3.5,6.7-4.6c-0.1,13.2-0.5,26.5-0.9,39.7c-4.3-0.3-8.5-1.8-11.8-4.6
		c-2.6-2.9-4.3-7.3-2.7-11.1c1.8-4.1,7-5.2,8.8-9.3C284.7,440.1,283.8,436.5,283.3,433.2z"/>
</g>
<g>
	<path fill="#533A2C" d="M275.2,479.2c1.5-1.1,3.8-0.8,5.1,0.5c3,2.5,2,8.8-2.3,9.3c-3.1,0.8-5.1-2.3-5.5-4.9
		C272.1,481.9,273.7,480.3,275.2,479.2z"/>
</g>
<g>
	<path fill="#584144" d="M675.3,498.9l1.5,0c0,7.3-4.2,13.8-4.9,21c2.2,1.3,4.4,3,7,3.1c3.6,0.3,7.3,0.6,10.8,1.7
		c-0.9,1-1.8,2.1-2.7,3.1c-1.8,1.9-3.5,4.2-6.1,5.2c-5.6,2.3-11.4,3.9-17,6.1c0.3-0.6,0.9-1.9,1.3-2.5c0.7-1.4,1.4-2.9,1.9-4.4
		c0.6-2,0.8-4.1,1.2-6.2C670,516.7,673.9,508.1,675.3,498.9z"/>
</g>
<g>
	<path fill="#73644D" d="M646,532.9c7.5-2.3,14.8-5.2,22.4-7c-0.4,2.1-0.6,4.2-1.2,6.2c0.1-0.7,0.3-2.1,0.4-2.8
		c-23,6.2-45.8,13.1-68.6,19.8c-26.7,8.2-53.2,17-79.9,25c-31.1,9.9-62.2,19.5-93.1,29.9c-28.4,8.9-56.9,17.6-85.5,26.3
		c-4.2,1.2-8.3,2.7-12.6,3.6c16.6-5.8,33.5-10.9,50.1-16.5c30.7-9.9,61.3-20,91.9-30.3c6.9-2.6,14-4.7,21.1-7
		c24.5-7.5,49-14.9,73.4-22.5c9-3,18-5.8,26.9-9.1C609.2,542.3,627.7,537.9,646,532.9z"/>
</g>
<g>
	<path fill="#654838" d="M276.4,569.4c3.6-1.7,8.1,1.7,7.6,5.6c0.6,4.4-5.4,8-8.8,4.8C271.7,577.2,272.4,571.2,276.4,569.4z"/>
</g>
<g>
	<path fill="#654838" d="M687.7,494.1c2.3-1.1,5.2,1.1,4.9,3.6c0.4,2.8-3.5,5.1-5.6,3.1C684.7,499.1,685.2,495.2,687.7,494.1z"/>
</g>
<g>
	<g>
		<path fill="#6B4D3C" d="M292,589c2.5-4.1,3.6-9.1,7.4-12.5c0.3,2,0.6,3.9,0.9,5.9c0.2,1.6,0.4,3.3,0.6,4.9
			c2,14.2,3.7,28.4,5.8,42.5c-1.8,0.7-3.9,1.2-5.5,2.4c0.2,1.3,0.9,2.5,1.4,3.7c-1.5-0.4-3-0.7-4.5-1c-1.1,1-2.3,1.9-3,3.3
			c0.1,1.9,0.3,3.8,0.8,5.7c-1.9-1-3.6-2.8-3.7-5c0.2-2.7,2.1-4.8,3.5-6.9c-5.2-0.3-10.6-0.6-15.7,1.1c0.1,5,1.8,9.8,2,14.8
			c0.1,2-0.5,4.7-2.9,5.1c2.5-4.8,0.6-10.1-0.3-15.1c-1-4.9-0.8-10-2.1-14.9c-1.6-5.9-2.1-12.1-4-18c-0.7-2.1-0.8-4.3-0.9-6.5
			c0.7,1.5,1.4,2.9,2,4.4c4-3,8.2-5.8,12.4-8.7C288.4,592.8,290.7,591.3,292,589z M284.3,614.3c-2.2,1-2.3,3.3-2,5.5
			c1.5,1.6,2.9,3.8,5.5,3c0.5-0.3,1.4-0.9,1.9-1.1c0.3-0.5,0.9-1.4,1.2-1.9c-0.3-1.5,0.7-3.7-1.1-4.5
			C288.9,613.3,285.5,612,284.3,614.3z"/>
	</g>
</g>
<g>
	<path fill="#825E49" d="M284.3,614.3c1.2-2.3,4.6-1,5.5,1c1.8,0.8,0.8,3,1.1,4.5c-0.3,0.5-0.9,1.4-1.2,1.9
		c-0.5,0.3-1.4,0.9-1.9,1.1c-2.6,0.8-4-1.4-5.5-3C282,617.6,282.1,615.3,284.3,614.3z"/>
</g>
</svg>
