<?xml version="1.0" encoding="utf-8"?>
<!-- Generator: Adobe Illustrator 17.1.0, SVG Export Plug-In . SVG Version: 6.00 Build 0)  -->
<!DOCTYPE svg PUBLIC "-//W3C//DTD SVG 1.1//EN" "http://www.w3.org/Graphics/SVG/1.1/DTD/svg11.dtd">
<svg version="1.1" id="Layer_1" xmlns="http://www.w3.org/2000/svg" xmlns:xlink="http://www.w3.org/1999/xlink" x="0px" y="0px"
	 viewBox="0 0 302.5 174.4" enable-background="new 0 0 302.5 174.4" xml:space="preserve">
<g>
	<g>
		<path fill="#EF7820" d="M292.7,133c-4.4-33-35.5-60.9-79-74.4c-13.5-26.7-34.5-40.7-58.8-44.8v12.9c19.9,5.1,36,18.2,42.9,42.2
			h-42.9v64h59.3l-0.1-1.8c0-15.7,12.1-28.3,27.1-28.3c14.9,0,27,12.7,27,28.3l-0.1,1.8H292.7z"/>
		<path fill="#FF8A28" d="M143.7,69V24.7c3.9,0.4,7.6,1.1,11.3,2.1V13.9c-5.1-0.8-10.3-1.3-15.6-1.3c-36.3,0-67.6,21.8-81.9,64
			C35,91.3,20,111,17.1,133h19.8l-0.1-1.8c0-15.7,12.1-28.3,27.1-28.3c14.9,0,27,12.7,27,28.3l-0.1,1.8h64.1V69H143.7z M134.6,69
			H79.2c8.2-28.9,29.7-42.5,55.4-44.4V69z"/>
	</g>
	<g>
		<path fill="#00A2A2" d="M269.4,130.3c0,15.4-12.5,28-28,28c-15.5,0-28-12.5-28-28c0-15.5,12.5-28,28-28
			C256.9,102.3,269.4,114.8,269.4,130.3z"/>
		<path fill="#2F373F" d="M255.1,130.3c0,7.6-6.1,13.7-13.7,13.7c-7.6,0-13.7-6.1-13.7-13.7c0-7.6,6.1-13.7,13.7-13.7
			C249,116.6,255.1,122.7,255.1,130.3z"/>
		<path fill="#00B5B5" d="M91.2,130.3c0,15.4-12.5,28-28,28c-15.5,0-28-12.5-28-28c0-15.5,12.5-28,28-28
			C78.6,102.3,91.2,114.8,91.2,130.3z"/>
		<path fill="#3E4651" d="M76.9,130.3c0,7.6-6.1,13.7-13.7,13.7c-7.6,0-13.7-6.1-13.7-13.7c0-7.6,6.1-13.7,13.7-13.7
			C70.8,116.6,76.9,122.7,76.9,130.3z"/>
	</g>
</g>
</svg>
