<?xml version="1.0" encoding="utf-8"?>
<!-- Generator: Adobe Illustrator 17.1.0, SVG Export Plug-In . SVG Version: 6.00 Build 0)  -->
<!DOCTYPE svg PUBLIC "-//W3C//DTD SVG 1.1//EN" "http://www.w3.org/Graphics/SVG/1.1/DTD/svg11.dtd">
<svg version="1.1" id="Layer_1" xmlns="http://www.w3.org/2000/svg" xmlns:xlink="http://www.w3.org/1999/xlink" x="0px" y="0px"
	 viewBox="0 0 276.9 281.8" enable-background="new 0 0 276.9 281.8" xml:space="preserve">
<g>
	<path fill="#FF8A28" d="M63.5,142.8c0-42.5,34.5-77,77-77v-54H132l-4.6,26.8c-8.8,1.1-17.1,3.3-25.1,6.4L84.6,23.8l-17,9.8L77,59.2
		c-6.9,5.2-13.1,11.3-18.5,18l-25.9-9.5l-9.8,17l20.8,17.3c-3.3,7.9-5.6,16.3-6.9,25l-27.2,4.7v19.6l26.8,4.6
		c1.1,8.7,3.3,17.1,6.4,25.1l-21.2,17.6l9.8,17l25.6-9.4c5.2,6.9,11.3,13.1,18,18.5l-9.5,25.9l17,9.8l17.3-20.8
		c7.9,3.3,16.3,5.6,25,6.9l4.7,27.2h11v-54C98,219.8,63.5,185.3,63.5,142.8z"/>
	<path fill="#EF7820" d="M244.4,158.5l27.2-4.7l0-19.6l-26.8-4.6c-1.1-8.7-3.3-17.2-6.4-25.1l21.2-17.6l-9.8-17l-25.6,9.4
		c-5.3-6.9-11.3-13.1-18-18.5l9.5-25.9l-17-9.8l-17.4,20.8c-7.9-3.3-16.3-5.6-25-6.9l-4.7-27.2h-11v54c42.6,0,77,34.5,77,77
		c0,42.6-34.5,77-77,77v54h8.6l4.6-26.8c8.7-1.1,17.1-3.3,25.1-6.4l17.6,21.2l17-9.8l-9.4-25.6c6.9-5.2,13.1-11.3,18.6-18l25.9,9.5
		l9.8-17l-20.8-17.3C240.8,175.6,243.1,167.2,244.4,158.5z"/>
	<path fill="#00B5B5" d="M140.6,79.8c-34.8,0-63,28.2-63,63c0,34.8,28.2,63,63,63l0,0V79.8L140.6,79.8z"/>
	<path fill="#00A2A2" d="M203.5,142.8c0-34.8-28.2-63-63-63v125.9C175.3,205.8,203.5,177.6,203.5,142.8z"/>
</g>
</svg>
