<?xml version="1.0" encoding="utf-8"?>
<!-- Generator: Adobe Illustrator 17.1.0, SVG Export Plug-In . SVG Version: 6.00 Build 0)  -->
<!DOCTYPE svg PUBLIC "-//W3C//DTD SVG 1.1//EN" "http://www.w3.org/Graphics/SVG/1.1/DTD/svg11.dtd">
<svg version="1.1" id="Layer_1" xmlns="http://www.w3.org/2000/svg" xmlns:xlink="http://www.w3.org/1999/xlink" x="0px" y="0px"
	 viewBox="0 0 278.7 304" enable-background="new 0 0 278.7 304" xml:space="preserve">
<g>
	<g>
		<polygon fill="#E5E5E5" points="194,56.7 190,56.6 190,177.4 193.6,179.4 		"/>
		<polygon fill="#FFFFFF" points="187.4,56.6 187,168.2 94.6,116.8 91.4,122.5 190,177.4 190,56.6 		"/>
	</g>
	<g>
		<polygon fill="#FFFFFF" points="86.9,242.2 176.6,178.5 119,189.1 117.8,182.6 190.1,169.4 192.6,175.3 90.8,247.6 86.9,242.2 		
			"/>
	</g>
	<g>
		<polygon fill="#E5E5E5" points="183.8,166.3 250.8,188.9 248.7,195.2 200.7,179 247.1,245.4 241.6,249.1 183.8,166.3 		"/>
	</g>
	<g>
		<path fill="#FFFFFF" d="M175.1,53.6c0,8.3,6.6,15.1,14.9,15.4V38.2C181.7,38.5,175.1,45.3,175.1,53.6z"/>
		<path fill="#E5E5E5" d="M190.6,38.1c-0.2,0-0.4,0.1-0.6,0.1V69c0.2,0,0.4,0.1,0.6,0.1c8.6,0,15.5-6.9,15.5-15.5
			C206.1,45,199.1,38.1,190.6,38.1z"/>
		<path fill="#EF7820" d="M188.2,48.1c0,1.7,0.7,3.2,1.8,4.3v-8.6C188.9,44.9,188.2,46.4,188.2,48.1z"/>
		<path fill="#D85309" d="M194.2,42.1c-1.6,0-3.1,0.7-4.2,1.7v8.6c1.1,1.1,2.5,1.7,4.2,1.7c3.3,0,6-2.7,6-6
			C200.2,44.8,197.5,42.1,194.2,42.1z"/>
	</g>
	<path fill="#E5E5E5" d="M262.4,193.3c0,6-4.8,10.8-10.8,10.8c-6,0-10.8-4.8-10.8-10.8c0-6,4.8-10.8,10.8-10.8
		C257.6,182.5,262.4,187.4,262.4,193.3z"/>
	<path fill="#D85309" d="M258.3,189.5c0,2.3-1.9,4.2-4.2,4.2c-2.3,0-4.2-1.9-4.2-4.2c0-2.3,1.9-4.2,4.2-4.2
		C256.5,185.3,258.3,187.2,258.3,189.5z"/>
	<g>
		<path fill="#E5E5E5" d="M266,251.1c0,11.1-9,20.1-20.2,20.1c-11.1,0-20.1-9-20.1-20.1c0-11.1,9-20.1,20.1-20.1
			C257,231,266,240,266,251.1z"/>
		<path fill="#D85309" d="M258.4,243.9c0,4.3-3.5,7.8-7.8,7.8c-4.3,0-7.8-3.5-7.8-7.8c0-4.3,3.5-7.8,7.8-7.8
			C254.9,236.1,258.4,239.6,258.4,243.9z"/>
	</g>
	<g>
		<path fill="#FFFFFF" d="M102.5,111.8c0,11.8-9.6,21.4-21.4,21.4c-11.8,0-21.4-9.6-21.4-21.4c0-11.8,9.6-21.4,21.4-21.4
			C92.9,90.4,102.5,100,102.5,111.8z"/>
		<path fill="#EF7820" d="M94.4,104.2c0,4.6-3.7,8.3-8.3,8.3c-4.6,0-8.3-3.7-8.3-8.3c0-4.6,3.7-8.3,8.3-8.3
			C90.6,95.9,94.4,99.6,94.4,104.2z"/>
	</g>
	<g>
		<path fill="#FFFFFF" d="M87.4,190.2c-1.4-9.1,4.8-17.6,13.9-18.9c9.1-1.4,17.6,4.9,18.9,13.9c1.4,9.1-4.8,17.6-13.9,19
			C97.3,205.5,88.8,199.3,87.4,190.2z"/>
		<path fill="#EF7820" d="M114.2,181.8c0,3.6-2.9,6.5-6.5,6.5c-3.6,0-6.5-2.9-6.5-6.5c0-3.6,2.9-6.5,6.5-6.5
			C111.3,175.3,114.2,178.2,114.2,181.8z"/>
	</g>
	<g>
		<path fill="#FFFFFF" d="M103.3,252.1c0,11.7-9.5,21.2-21.2,21.2c-11.7,0-21.2-9.5-21.2-21.2c0-11.7,9.5-21.2,21.2-21.2
			C93.8,230.9,103.3,240.4,103.3,252.1z"/>
		<path fill="#EF7820" d="M95.3,244.6c0,4.5-3.7,8.2-8.2,8.2c-4.5,0-8.2-3.7-8.2-8.2c0-4.5,3.7-8.2,8.2-8.2
			C91.6,236.3,95.3,240,95.3,244.6z"/>
	</g>
	<g>
		<path fill="#FFFFFF" d="M187.6,147.7c-13.7,0-24.9,11.1-24.9,24.9s11.1,24.9,24.9,24.9c0.8,0,1.6-0.2,2.4-0.2V148
			C189.2,147.9,188.4,147.7,187.6,147.7z"/>
		<path fill="#E5E5E5" d="M212.5,172.6c0-12.9-9.9-23.4-22.5-24.6v49.3C202.6,196,212.5,185.5,212.5,172.6z"/>
		<path fill="#EF7820" d="M187,164.2c0,2.6,1.2,5,3,6.6v-13.1C188.2,159.2,187,161.6,187,164.2z"/>
		<path fill="#D85309" d="M195.8,155.3c-2.3,0-4.3,0.9-5.9,2.3v13.1c1.6,1.4,3.6,2.3,5.9,2.3c4.9,0,8.8-4,8.8-8.8
			C204.7,159.3,200.7,155.3,195.8,155.3z"/>
	</g>
</g>
</svg>
