<?xml version="1.0" encoding="utf-8"?>
<!-- Generator: Adobe Illustrator 17.1.0, SVG Export Plug-In . SVG Version: 6.00 Build 0)  -->
<!DOCTYPE svg PUBLIC "-//W3C//DTD SVG 1.1//EN" "http://www.w3.org/Graphics/SVG/1.1/DTD/svg11.dtd">
<svg version="1.1" id="Layer_1" xmlns="http://www.w3.org/2000/svg" xmlns:xlink="http://www.w3.org/1999/xlink" x="0px" y="0px"
	 viewBox="0 0 214.9 308.6" enable-background="new 0 0 214.9 308.6" xml:space="preserve">
<g>
	<path fill="#EF7820" d="M204.7,276.9h-63.4c-3.1-30.7,54.9-62.7,47-101.2h-82.6v123h58.9C182.2,293.6,196.3,286,204.7,276.9z"/>
	<path fill="#FF8A28" d="M35.4,175.7c-0.8,4.1-0.8,8.1-0.3,12.1c-2.3-0.3-4.9-0.4-7.8-0.1c-7.4,1-17.7,6.1-20.3,17.9
		c-2.6,12.4,8.5,23.1,18.8,27.5c10.9,4.9,21.2,6.3,29.4,10c7.8,3,14.2,5.5,13.2,12.8c-0.4,2.8-2.7,4.6-5.2,5.3
		c0.9-0.9,1.4-2.1,1.3-3.5c-0.2-2.5-2.4-4.4-4.9-4.3c-2.5,0.2-4.5,2.4-4.3,4.9c0.1,1.4,0.9,2.6,1.9,3.3c2.6,3,11.8,4.6,16.3-4.3
		c0.8-1.5,1.1-2.9,1.2-4.2c5,8.1,8.2,16,7.4,23.8H24.6c8.4,9.1,22.6,16.7,40.2,21.7h41v-123H35.4z M29.5,225.5
		c-9.2-4.1-16.5-11.3-15.4-18.8c0.8-7.6,7.9-13.2,14.2-14.9c2.6-0.7,5-1,7.2-1c3.4,17.1,17.4,33,29.2,48.1C53,232,35,228,29.5,225.5
		z"/>
	<path fill="#00B5B5" d="M100.3,139c-10.6-13.7-17.6-31.4-1.6-44.9c2-2,4.5-4.1,7-6.2V61.3c-5.6,4.7-13.1,10-22.2,17.2
		c-11.4,10.2-17.6,28.6-12,42.5c5.2,13.4,14.1,20.3,21,25.6c5,3.5,9.5,6.2,13.1,8.4v-8.7C104,144,102.2,141.6,100.3,139z"/>
	<path fill="#00A2A2" d="M125.3,68.1c8.5-12.2,5.2-28.1,0.2-35.1c-10-15.5-19.6-20.4-19.3-20.8c-0.4,0,5.5,9.8,9.2,24.8
		c3.1,10.6-0.8,16.8-9.8,24.4v26.6C112.3,82.5,119.9,76.5,125.3,68.1z"/>
	<path fill="#00A2A2" d="M105.7,146.3v8.7c6.8,3.9,10.9,5.6,10.9,5.7C116.8,160.7,112.4,155.2,105.7,146.3z"/>
	<path fill="#00A2A2" d="M112.1,102.9c-10.9,18.2-2.1,36.4,5.3,43.4c7.7,7.9,14.6,8.8,14.3,9c-0.1,0.9-12.2-26-1.1-40.9
		c5.3-8.3,17.4-21.2,17.3-34.1c-0.7-12.3-7.2-16-6.4-16.2c-0.5-0.2,0,7.2-4.1,13.7C133.3,84.4,123,87.8,112.1,102.9z"/>
</g>
</svg>
