<?xml version="1.0" encoding="utf-8"?>
<!-- Generator: Adobe Illustrator 17.1.0, SVG Export Plug-In . SVG Version: 6.00 Build 0)  -->
<!DOCTYPE svg PUBLIC "-//W3C//DTD SVG 1.1//EN" "http://www.w3.org/Graphics/SVG/1.1/DTD/svg11.dtd">
<svg version="1.1" id="Layer_1" xmlns="http://www.w3.org/2000/svg" xmlns:xlink="http://www.w3.org/1999/xlink" x="0px" y="0px"
	 viewBox="0 0 310.6 310.6" enable-background="new 0 0 310.6 310.6" xml:space="preserve">
<g>
	<path fill="#4EAEAB" d="M123.9,30.6c-4.8,4.5-9.6,9.8-13.3,15c20.7,3.5,40.4,18.7,47.4,38.9V67C149.4,52.1,135.8,38,123.9,30.6z"/>
	<path fill="#4F9E9A" d="M166.9,90.1c-1-7.4-4.2-15.3-8.7-23.1v17.5c1.2,3.3,2,6.8,2.4,10.4L166.9,90.1z"/>
	<g>
		<path fill="#E18C49" d="M109,119.3c0,1.6,0.1,3.2,0.3,4.7l0.3,2.6c2.6,21.2-7,23.9-29.2,57.3c-6.8,10.3-10.5,22-10.5,33.8
			c-0.2,37.6,61.6,68.5,78.2,68.6c0,0,0,0,0,0l10-210.1C131,76.5,109.1,95.7,109,119.3z"/>
		<path fill="#DC7C43" d="M226.9,218.3c0-11.8-3.5-23.6-10.2-33.9c-21.9-33.6-21.6-36.3-18.8-57.5l0.3-2.6c0.2-1.5,0.3-3.1,0.3-4.7
			c0.1-23.9-12.2-43.4-39.6-43.4c-0.3,0-0.5,0-0.8,0l-10,210.1C191.4,286.5,226.7,256,226.9,218.3z"/>
	</g>
	<path fill="#4F9E9A" d="M162.3,30.1c-8.8,16.1-0.5,37.6-0.5,37.6s12.5-4.7,21.3-20.8c8.8-16.1,0.6-37.6,0.6-37.6
		S171.1,14,162.3,30.1z"/>
</g>
<g>
	<path fill="#FFFFFF" d="M149.3,92c-2,1.3-3.9,2.8-5.6,4.5c-6.4,6.3-9.9,14.3-10,22.4c0,1.3,0.1,2.6,0.2,3.7l0.4,2.9
		c3.5,28.4,2.4,34.3-23.8,74.1c-6.3,9.4-19.6,20.1-19.7,30.9c0,3.6,0.4,7.2,1,10.6c1.2,5.8-2.7,4.1-6.5-5.3
		c-2.3-5.7-3.6-11.7-3.5-17.9c0-9.5,3-18.9,8.5-27.3c23.2-35.1,34.2-40.4,31-65.5l-0.3-2.5c-0.1-1-0.2-2.1-0.2-3.3
		c0.1-7.1,3.2-14.2,8.8-19.8c3.4-3.3,7.4-5.9,11.9-7.8C149,88.7,152.6,89.8,149.3,92z"/>
</g>
</svg>
