<?xml version="1.0" encoding="utf-8"?>
<!-- Generator: Adobe Illustrator 15.0.0, SVG Export Plug-In . SVG Version: 6.00 Build 0)  -->
<!DOCTYPE svg PUBLIC "-//W3C//DTD SVG 1.1//EN" "http://www.w3.org/Graphics/SVG/1.1/DTD/svg11.dtd">
<svg version="1.1" id="Layer_1" xmlns="http://www.w3.org/2000/svg" xmlns:xlink="http://www.w3.org/1999/xlink" x="0px" y="0px"
	 width="232.244px" height="245.315px" viewBox="0 0 232.244 245.315" enable-background="new 0 0 232.244 245.315"
	 xml:space="preserve">
<path fill="#4871B7" d="M0,69.799c0,0,12.952-0.909,17.227,12.921c6.947,22.474-43.186,154.207,120.608,154.207
	c0,0-19.091-4.534-26-6.651c-19.646-6.025-23.874-8.114-41.707-24.15c-28.255-25.399-24.188-52.764-24.188-52.764
	s22.74,41.114,41.287,54.729c26.679,19.589,59.984,27.707,111.965-0.05c0,0-31.103,8.311-45.392,6.293
	c-28.003-3.958-44.327-24.839-52.65-63.373C90.651,102.357,30.877,43.847,0,69.799z"/>
<path fill="#FBAD30" d="M125.179,182.36c0,0,29.941,44.506,75.257,13.757c45.314-30.749,1.616-99.426-3.238-102.715
	c0,0,8.881,43.935,6.387,59.719c-2.516,15.934-13.106,27.539-28.48,31.179C154.793,189.11,125.179,182.36,125.179,182.36z"/>
<path fill="#F04949" d="M172.782,6.214c0,1.031-65.474,54.529-103.031,76.584c0,0,36.636,38.778,46.172,79.515
	c0,0,9.452,14.326,39.627,14.124c41.249-0.277,51.028-51.634,26.19-110.955C171.088,40.037,172.782,6.214,172.782,6.214z"/>
</svg>
