<?xml version="1.0" encoding="utf-8"?>
<!-- Generator: Adobe Illustrator 17.1.0, SVG Export Plug-In . SVG Version: 6.00 Build 0)  -->
<!DOCTYPE svg PUBLIC "-//W3C//DTD SVG 1.1//EN" "http://www.w3.org/Graphics/SVG/1.1/DTD/svg11.dtd">
<svg version="1.1" id="Layer_1" xmlns="http://www.w3.org/2000/svg" xmlns:xlink="http://www.w3.org/1999/xlink" x="0px" y="0px"
	 viewBox="0 0 276.9 202.5" enable-background="new 0 0 276.9 202.5" xml:space="preserve">
<g>
	<path fill="#3E4651" d="M121.6,74.9C50.6,100.3,1.3,144,11.5,172.4c9.2,25.8,72.5,31.3,137.2,13.1v-119
		C139.8,68.8,130.8,71.6,121.6,74.9z"/>
	<path fill="#2F373F" d="M268.6,80.3c-8.9-24.7-60-29.8-119.9-13.8v119c6.6-1.8,13.2-3.9,19.8-6.3
		C239.4,153.7,278.8,108.7,268.6,80.3z"/>
	<path fill="#3E4651" d="M138.6,25.6c-33.9,4.2-52.4-29.3-72.8,13.6c-7.9,16.5-10,36-11.1,55.3c27.4,10.9,61.8,16.4,94,13.3V23.3
		C145.6,24.3,142.2,25.2,138.6,25.6z"/>
	<path fill="#2F373F" d="M199.9,22.5c-20.8-18.5-32.1-5.3-51.2,0.8v84.4c28.7-2.8,55.7-12.5,74.2-31.8
		C219.5,55.2,213.1,34.3,199.9,22.5z"/>
	<path fill="#FF8A28" d="M54.7,94.5c-0.7,11.6-1,23.2-2,34.1c29,18.7,62.8,23.5,96.1,18.3v-39.2C116.5,110.9,82.1,105.4,54.7,94.5z"
		/>
	<path fill="#EF7820" d="M222.8,75.9c-18.5,19.3-45.4,29-74.2,31.8v39.2c27.5-4.2,54.6-15.3,78.3-31
		C226.2,104.8,225.2,90.4,222.8,75.9z"/>
	<path fill="#00A2A2" d="M85.4,33.5c-1.8,37.1,35.8,22,63.2,5.4v-3.1C128.9,40.7,107.5,36.1,85.4,33.5z"/>
	<path fill="#00A2A2" d="M148.7,35.8v3.1c3.6-2.2,7-4.4,10.1-6.5C155.5,33.8,152.1,34.9,148.7,35.8z"/>
</g>
</svg>
