<?xml version="1.0" encoding="utf-8"?>
<!-- Generator: Adobe Illustrator 17.1.0, SVG Export Plug-In . SVG Version: 6.00 Build 0)  -->
<!DOCTYPE svg PUBLIC "-//W3C//DTD SVG 1.1//EN" "http://www.w3.org/Graphics/SVG/1.1/DTD/svg11.dtd">
<svg version="1.1" id="Layer_1" xmlns="http://www.w3.org/2000/svg" xmlns:xlink="http://www.w3.org/1999/xlink" x="0px" y="0px"
	 viewBox="0 0 204.2 215.3" enable-background="new 0 0 204.2 215.3" xml:space="preserve">
<g>
	<path fill="#D14330" d="M2.8,123.7c0,46.9,44.2,84.8,98.7,84.9V38.8C47,38.8,2.8,76.8,2.8,123.7z"/>
	<path fill="#BF3426" d="M101.5,38.8C101.5,38.8,101.5,38.8,101.5,38.8l-0.1,169.7c0,0,0,0,0.1,0c54.5,0,98.7-38,98.7-84.9
		C200.2,76.8,156,38.8,101.5,38.8z"/>
	<path fill="#00A2A2" d="M100.5,26.3c-12.3-7-35.6-14.8-35.6-14.8s7.9,14.1,16.2,23.5c-16.7,1.5-40.2,6.9-40.2,6.9
		s21.9,6.4,38.3,8.9c-8.2,9.6-16.1,24.8-16.1,24.8s20.5-7.4,32.9-14.4c1.2,4.7,3.2,10,5.3,15v-52C101.1,25,100.8,25.7,100.5,26.3z"
		/>
	<path fill="#008C88" d="M177.4,44.7c0,0-23.4-5.4-40.2-6.9c8.3-9.4,16.2-23.6,16.2-23.6s-19.3,6.5-32,12.9c-1.7-9.5-7.7-22-7.7-22
		s-8,10.3-12.3,19.2v52c3.9,9,8.1,16.6,8.1,16.6s8.9-15.9,12.8-28.8c12.4,6.9,32.8,14.3,32.8,14.3s-7.9-15.2-16.1-24.8
		C155.5,51.1,177.4,44.7,177.4,44.7z"/>
	<g>
		<g>
			<path fill="#FFFFFF" d="M116.8,84.5c6.6-9.5,17.3-15.6,21.2-15.4c3.9,0.2,0.7,6.1-5,14.5c-5.7,8.4-12.4,16.3-17.1,17.2
				C111.2,101.7,110.3,94,116.8,84.5z M122,173.1c-12.8-12.4-20.5-28.4-20.5-45.9c0-3.5,0.3-7,1-10.3c1-5.7,6.9-9.9,11.9-9.4
				c5,0.5,6.8,6.1,5.4,12.6c-0.8,3.9-1.2,7.8-1.2,11.9c0,14.6,5.4,28.3,14.7,39.5C148.5,190.1,142.9,193.3,122,173.1z"/>
		</g>
	</g>
</g>
</svg>
