<?xml version="1.0" encoding="utf-8"?>
<!-- Generator: Adobe Illustrator 17.1.0, SVG Export Plug-In . SVG Version: 6.00 Build 0)  -->
<!DOCTYPE svg PUBLIC "-//W3C//DTD SVG 1.1//EN" "http://www.w3.org/Graphics/SVG/1.1/DTD/svg11.dtd">
<svg version="1.1" id="Layer_1" xmlns="http://www.w3.org/2000/svg" xmlns:xlink="http://www.w3.org/1999/xlink" x="0px" y="0px"
	 viewBox="0 0 187.6 266.1" enable-background="new 0 0 187.6 266.1" xml:space="preserve">
<g>
	<path fill="#FFFFFF" d="M44.7,86c0,29.6,21.7,54,50,58.3V27.7C66.4,32,44.7,56.4,44.7,86z"/>
	<path fill="#FFFFFF" d="M103.8,26.9c-3.1,0-6.1,0.3-9.1,0.8v116.7c3,0.5,6,0.8,9.1,0.8c32.6,0,59.1-26.5,59.1-59.1
		C162.9,53.3,136.4,26.9,103.8,26.9z"/>
	<path fill="#EF7820" d="M146.5,41.6c-13.9-14.2-31-21.4-51-21.6c-0.2,0-0.4,0-0.5,0c-0.2,0-0.4,0-0.6,0c-0.1,0-0.3,0-0.5,0v10.7
		c0.8-0.2,2-0.3,3.7-0.3c20.1-0.1,37.9,6.9,49,21.2c11.1,14.3,13.4,33.3,8.3,52.7c-1.6,6.2-2.9,5.7-3-0.8
		c-0.2-16-5.1-31.4-15.1-44.4c-10-12.9-23.8-21.5-39.1-25.7c-1.7-0.5-3-0.9-3.7-1.3v171.1l23.3,0.2c-3-17.4,1.8-32.2,14.5-44.1
		c12.7-12,21.1-21.3,25-28c3.9-6.7,6.9-14.2,8.9-22.6c1-5.1,1.6-10.4,1.7-15.8C167.3,73,160.3,55.8,146.5,41.6z"/>
	<path fill="#FF8A28" d="M94.7,30.6V19.9c0,0,0,0,0,0c-20-0.2-37.2,6.7-51.4,20.6c-14.1,14-21.4,31-21.6,51c0,5.4,0.5,10.8,1.4,15.8
		c1.8,8.4,4.6,16,8.4,22.8c3.8,6.8,12,16.3,24.5,28.5c12.5,12.2,17,27,13.6,44.4l25.1,0.2V32.1C93.4,31.5,93.4,30.9,94.7,30.6z"/>
	<path fill="#2A80B9" d="M71.2,207.3c-3.4,0-6.1,2.3-6.2,5.3c0,3,2.7,5.4,6.1,5.5l23.6,0.3v-10.8L71.2,207.3z"/>
	<path fill="#1B5B7F" d="M116.3,207.8l-21.6-0.2v10.8l21.5,0.2c3.4,0,6.1-2.4,6.2-5.3C122.4,210.2,119.7,207.8,116.3,207.8z"/>
	<path fill="#2A80B9" d="M71,221c-3.4,0-6.1,2.4-6.2,5.3c0,3,2.7,5.4,6.1,5.4l23.8,0.2v-10.8L71,221z"/>
	<path fill="#1B5B7F" d="M116.2,221.5l-21.4-0.2V232l21.3,0.2c3.4,0,6.1-2.3,6.2-5.3C122.2,223.9,119.6,221.5,116.2,221.5z"/>
	<path fill="#2A80B9" d="M79.2,234.1c-3.4-0.1-6.2,2.3-6.2,5.3c0,3,2.7,5.4,6.1,5.5l15.6,0.2v-10.8L79.2,234.1z"/>
	<path fill="#1B5B7F" d="M107.7,234.4l-13-0.1v10.8l12.9,0.1c3.4,0,6.1-2.3,6.2-5.3C113.8,236.9,111.1,234.4,107.7,234.4z"/>
</g>
</svg>
