<?xml version="1.0" encoding="utf-8"?>
<!-- Generator: Adobe Illustrator 17.1.0, SVG Export Plug-In . SVG Version: 6.00 Build 0)  -->
<!DOCTYPE svg PUBLIC "-//W3C//DTD SVG 1.1//EN" "http://www.w3.org/Graphics/SVG/1.1/DTD/svg11.dtd">
<svg version="1.1" id="Layer_1" xmlns="http://www.w3.org/2000/svg" xmlns:xlink="http://www.w3.org/1999/xlink" x="0px" y="0px"
	 viewBox="0 0 129.6 167.6" enable-background="new 0 0 129.6 167.6" xml:space="preserve">
<g>
	<path fill="#63637A" d="M39.6,34.7c0-8.8,7.1-15.9,15.9-15.9h20.8c8.8,0,15.9,7.1,15.9,15.9V71h18V34.7C110.2,16,95,0.8,76.3,0.8
		H55.5C36.8,0.8,21.6,16,21.6,34.7V71h18V34.7z"/>
	<path fill="#FFFFFF" d="M119.5,71h-9.3h-18H39.6h-18H10.1C4.5,71,0,75.5,0,81.1v76.4c0,5.6,4.5,10.1,10.1,10.1h109.4
		c5.6,0,10.1-4.5,10.1-10.1V81.1C129.6,75.5,125.1,71,119.5,71z"/>
	<path fill="#63637A" d="M81.5,106.7C81.5,97.5,74,90,64.8,90c-9.2,0-16.7,7.5-16.7,16.7c0,6.6,3.9,12.3,9.5,15l-2.5,26.8h19.5
		L72,121.7C77.6,119,81.5,113.3,81.5,106.7z"/>
</g>
</svg>
