<?xml version="1.0" encoding="utf-8"?>
<!-- Generator: Adobe Illustrator 17.1.0, SVG Export Plug-In . SVG Version: 6.00 Build 0)  -->
<!DOCTYPE svg PUBLIC "-//W3C//DTD SVG 1.1//EN" "http://www.w3.org/Graphics/SVG/1.1/DTD/svg11.dtd">
<svg version="1.1" id="Layer_1" xmlns="http://www.w3.org/2000/svg" xmlns:xlink="http://www.w3.org/1999/xlink" x="0px" y="0px"
	 viewBox="0 0 161 169.3" enable-background="new 0 0 161 169.3" xml:space="preserve">
<g>
	<path fill="#BA8538" d="M161,147.3H0c0,2.1,0,6.1,0,7.9c0.1,2.8,1,5.6,2.6,8c2.7,3.9,7.2,6.2,11.9,6.2h131.9
		c4.7,0,9.2-2.3,11.9-6.2C161.1,159.3,161,152,161,147.3z"/>
	<path fill="#E5B46C" d="M160.1,141.9c1.6,4.5,1,9.4-1.8,13.3c-2.7,3.9-7.2,6.2-11.9,6.2H14.5c-4.7,0-9.2-2.3-11.9-6.2
		c-2.7-3.9-3.4-8.8-1.8-13.3l19.5-53.6c2.1-5.7,7.5-9.6,13.7-9.6h93c6.1,0,11.6,3.8,13.7,9.6L160.1,141.9z"/>
	<ellipse fill="#BA8538" cx="80.1" cy="120" rx="10" ry="4.1"/>
	<g>
		<path fill="#FFFFFF" d="M80.5,0C57.9,0,39.6,18.3,39.6,40.9c0,37.8,40.9,79.1,40.9,79.1s40.9-41.3,40.9-79.1
			C121.4,18.3,103.1,0,80.5,0z M80.5,60.6c-10.9,0-19.7-8.8-19.7-19.7s8.8-19.7,19.7-19.7s19.7,8.8,19.7,19.7S91.4,60.6,80.5,60.6z"
			/>
		<path fill="#F0F3F3" d="M80.5,20.4C69.2,20.4,60,29.6,60,40.9s9.2,20.5,20.5,20.5c11.3,0,20.5-9.2,20.5-20.5S91.9,20.4,80.5,20.4z
			 M80.5,56.5c-8.6,0-15.6-7-15.6-15.6s7-15.6,15.6-15.6s15.6,7,15.6,15.6S89.1,56.5,80.5,56.5z"/>
	</g>
</g>
</svg>
