<?xml version="1.0" encoding="utf-8"?>
<!-- Generator: Adobe Illustrator 17.1.0, SVG Export Plug-In . SVG Version: 6.00 Build 0)  -->
<!DOCTYPE svg PUBLIC "-//W3C//DTD SVG 1.1//EN" "http://www.w3.org/Graphics/SVG/1.1/DTD/svg11.dtd">
<svg version="1.1" id="Layer_1" xmlns="http://www.w3.org/2000/svg" xmlns:xlink="http://www.w3.org/1999/xlink" x="0px" y="0px"
	 viewBox="0 0 231.9 336.3" enable-background="new 0 0 231.9 336.3" xml:space="preserve">
<g>
	<g>
		<path fill="#F0F3F3" d="M172.4,250.5c20-82.5,8.6-143.2-8.8-184.2H118v247.4h33.8l0.6-3c0.6-2.7,2.4-4.9,4.9-6
			c2.5-1.1,5.4-0.9,7.7,0.5l50.8,31V294C215.9,294,215.9,294,172.4,250.5z"/>
		<path fill="#FFFFFF" d="M72.5,66.4c-17.4,41-28.7,101.7-8.8,184.2C20.2,294,20.2,294,20.2,294v42.3l50.8-31
			c2.3-1.4,5.2-1.6,7.7-0.5c2.5,1.1,4.3,3.3,4.9,6l0.6,3H118V66.4H72.5z"/>
	</g>
	<polygon fill="#848499" points="87.3,328.3 148.8,328.3 151.9,313.7 84.2,313.7 	"/>
	<g>
		<path fill="#848499" d="M118,104c-13,0-23.5,10.5-23.5,23.5c0,13,10.5,23.5,23.5,23.5c13,0,23.5-10.5,23.5-23.5
			C141.6,114.6,131,104,118,104z"/>
		<path fill="#484860" d="M118,97.2c-16.7,0-30.3,13.6-30.3,30.3s13.6,30.3,30.3,30.3c16.7,0,30.3-13.6,30.3-30.3
			S134.7,97.2,118,97.2z M118,151c-13,0-23.5-10.5-23.5-23.5c0-13,10.5-23.5,23.5-23.5c13,0,23.5,10.5,23.5,23.5
			C141.6,140.5,131,151,118,151z"/>
	</g>
	<g>
		<path fill="#848499" d="M118,176.2c-7.5,0-13.5,6.1-13.5,13.5c0,7.5,6.1,13.5,13.5,13.5c7.5,0,13.5-6.1,13.5-13.5
			C131.6,182.2,125.5,176.2,118,176.2z"/>
		<path fill="#484860" d="M118,169.4c-11.2,0-20.3,9.1-20.3,20.3c0,11.2,9.1,20.3,20.3,20.3c11.2,0,20.3-9.1,20.3-20.3
			C138.4,178.5,129.2,169.4,118,169.4z M118,203.2c-7.5,0-13.5-6.1-13.5-13.5c0-7.5,6.1-13.5,13.5-13.5c7.5,0,13.5,6.1,13.5,13.5
			C131.6,197.2,125.5,203.2,118,203.2z"/>
	</g>
	<g>
		<path fill="#64647A" d="M163.6,66.4C144.5,21.2,118,0,118,0v66.4H163.6z"/>
		<path fill="#848499" d="M72.5,66.4H118V0C118,0,91.6,21.2,72.5,66.4z"/>
	</g>
</g>
</svg>
