<?xml version="1.0" encoding="utf-8"?>
<!-- Generator: Adobe Illustrator 17.1.0, SVG Export Plug-In . SVG Version: 6.00 Build 0)  -->
<!DOCTYPE svg PUBLIC "-//W3C//DTD SVG 1.1//EN" "http://www.w3.org/Graphics/SVG/1.1/DTD/svg11.dtd">
<svg version="1.1" id="Layer_1" xmlns="http://www.w3.org/2000/svg" xmlns:xlink="http://www.w3.org/1999/xlink" x="0px" y="0px"
	 viewBox="0 0 83.3 83.3" enable-background="new 0 0 83.3 83.3" xml:space="preserve">
<g>
	<circle fill="#FFFFFF" cx="41.6" cy="41.6" r="41.6"/>
	<path fill="#66667C" d="M60.3,58.2c0.7,1.5,0.4,3.2-0.9,4.3c-1.2,1.1-3,1.1-4.4,0.2c-1-0.7-2.4-0.9-3.6-0.3c-1.2,0.6-1.9,1.7-2,3
		c-0.1,1.6-1.3,3-2.9,3.3c-1.6,0.3-3.2-0.5-3.9-2c-0.5-1.2-1.7-2-2.9-2.1c-1.3-0.1-2.5,0.5-3.2,1.6c-0.9,1.4-2.6,1.9-4.1,1.4
		c-1.5-0.5-2.5-2.1-2.3-3.7c0.1-1.3-0.5-2.5-1.5-3.3c-1.1-0.7-2.4-0.8-3.6-0.3c-1.5,0.7-3.2,0.4-4.3-0.9c-1.1-1.2-1.1-3-0.2-4.3
		c0.7-1,0.9-2.4,0.3-3.6c-0.6-1.2-1.7-1.9-3-2c-1.6-0.1-3-1.3-3.3-2.9c-0.3-1.6,0.5-3.2,2-3.9c1.2-0.5,2-1.7,2.1-2.9
		c0.1-1.3-0.5-2.5-1.6-3.2c-1.4-0.9-1.9-2.6-1.4-4.1c0.5-1.5,2.1-2.5,3.7-2.3c1.3,0.1,2.5-0.5,3.3-1.5c0.7-1.1,0.8-2.4,0.3-3.6
		c-0.7-1.5-0.4-3.2,0.9-4.3c1.2-1.1,3-1.1,4.4-0.2c1,0.7,2.4,0.9,3.6,0.3c1.2-0.6,1.9-1.7,2-3c0.1-1.6,1.3-3,2.9-3.3
		c1.6-0.3,3.2,0.5,3.9,2c0.5,1.2,1.7,2,2.9,2.1c1.3,0.1,2.5-0.5,3.2-1.6c0.9-1.4,2.6-1.9,4.1-1.4c1.5,0.5,2.5,2.1,2.3,3.7
		c-0.1,1.3,0.5,2.5,1.5,3.3c1.1,0.7,2.4,0.8,3.6,0.3c1.5-0.7,3.2-0.4,4.3,0.9c1.1,1.2,1.1,3,0.2,4.4c-0.7,1-0.9,2.4-0.3,3.6
		c0.6,1.2,1.7,1.9,3,2c1.6,0.1,3,1.3,3.3,2.9c0.3,1.6-0.5,3.2-2,3.9c-1.2,0.5-2,1.7-2.1,2.9c-0.1,1.3,0.5,2.5,1.6,3.2
		c1.4,0.9,1.9,2.6,1.4,4.1c-0.5,1.5-2.1,2.5-3.7,2.3c-1.3-0.1-2.5,0.5-3.3,1.5C59.8,55.7,59.7,57.1,60.3,58.2z"/>
</g>
</svg>
