<?xml version="1.0" encoding="utf-8"?>
<!-- Generator: Adobe Illustrator 17.1.0, SVG Export Plug-In . SVG Version: 6.00 Build 0)  -->
<!DOCTYPE svg PUBLIC "-//W3C//DTD SVG 1.1//EN" "http://www.w3.org/Graphics/SVG/1.1/DTD/svg11.dtd">
<svg version="1.1" id="Layer_1" xmlns="http://www.w3.org/2000/svg" xmlns:xlink="http://www.w3.org/1999/xlink" x="0px" y="0px"
	 viewBox="0 0 278.4 280" enable-background="new 0 0 278.4 280" xml:space="preserve">
<circle fill="#4ABAB7" cx="140" cy="140" r="140"/>
<linearGradient id="SVGID_1_" gradientUnits="userSpaceOnUse" x1="77.1561" y1="88.8253" x2="233.1593" y2="244.8285">
	<stop  offset="0" style="stop-color:#208C87"/>
	<stop  offset="1" style="stop-color:#4ABAB7"/>
</linearGradient>
<path fill="url(#SVGID_1_)" d="M278.4,161.1L171.2,53.9c-7.4-7.8-17.9-12.6-29.6-12.6c-22.6,0-40.9,18.3-40.9,40.9
	c0,12.8,4.7,25.9,10.9,37.8H95.1c-6.1,0-11.6,3.8-13.7,9.6L62,183.1c-0.6,1.8-0.9,3.6-0.9,5.4h0c0,2.1,0,6.1,0,7.9
	c0.1,2.8,1,5.6,2.6,8l75.6,75.6c0.2,0,0.4,0,0.7,0C210.1,280,268.2,228.4,278.4,161.1z"/>
<g>
	<path fill="#44475A" d="M222.1,188.5h-161c0,2.1,0,6.1,0,7.9c0.1,2.8,1,5.6,2.6,8c2.7,3.9,7.2,6.2,11.9,6.2h131.9
		c4.7,0,9.2-2.3,11.9-6.2C222.2,200.5,222.1,193.3,222.1,188.5z"/>
	<path fill="#BEEB9F" d="M221.3,183.1c1.6,4.5,1,9.4-1.8,13.3c-2.7,3.9-7.2,6.2-11.9,6.2H75.7c-4.7,0-9.2-2.3-11.9-6.2
		c-2.7-3.9-3.4-8.8-1.8-13.3l19.5-53.6c2.1-5.7,7.5-9.6,13.7-9.6h93c6.1,0,11.6,3.8,13.7,9.6L221.3,183.1z"/>
	<ellipse fill="#79BD8F" cx="141.2" cy="161.3" rx="10" ry="4.1"/>
	<g>
		<path fill="#FFFFFF" d="M141.6,41.3c-22.6,0-40.9,18.3-40.9,40.9c0,37.8,40.9,79.1,40.9,79.1s40.9-41.3,40.9-79.1
			C182.5,59.6,164.2,41.3,141.6,41.3z M141.6,101.9c-10.9,0-19.7-8.8-19.7-19.7s8.8-19.7,19.7-19.7s19.7,8.8,19.7,19.7
			S152.5,101.9,141.6,101.9z"/>
		<path fill="#F0F3F3" d="M141.6,61.6c-11.3,0-20.5,9.2-20.5,20.5s9.2,20.5,20.5,20.5c11.3,0,20.5-9.2,20.5-20.5
			S153,61.6,141.6,61.6z M141.6,97.7c-8.6,0-15.6-7-15.6-15.6s7-15.6,15.6-15.6c8.6,0,15.6,7,15.6,15.6S150.2,97.7,141.6,97.7z"/>
	</g>
</g>
</svg>
