<?xml version="1.0" encoding="utf-8"?>
<!-- Generator: Adobe Illustrator 17.1.0, SVG Export Plug-In . SVG Version: 6.00 Build 0)  -->
<!DOCTYPE svg PUBLIC "-//W3C//DTD SVG 1.1//EN" "http://www.w3.org/Graphics/SVG/1.1/DTD/svg11.dtd">
<svg version="1.1" id="Layer_1" xmlns="http://www.w3.org/2000/svg" xmlns:xlink="http://www.w3.org/1999/xlink" x="0px" y="0px"
	 viewBox="0 0 280 280" enable-background="new 0 0 280 280" xml:space="preserve">
<circle fill="#F35B74" cx="140" cy="140" r="140"/>
<linearGradient id="SVGID_1_" gradientUnits="userSpaceOnUse" x1="62.9927" y1="62.992" x2="238.9951" y2="238.9944">
	<stop  offset="0" style="stop-color:#B4236E"/>
	<stop  offset="1" style="stop-color:#F35B74"/>
</linearGradient>
<path fill="url(#SVGID_1_)" d="M209.2,59.1H70.8c-5.2,0-9.5,4.3-9.5,9.5v142.8c0,2.6,1,4.9,2.7,6.6l61.2,61.2
	c4.9,0.5,9.8,0.8,14.8,0.8c77.3,0,140-62.7,140-140c0-5-0.3-9.9-0.8-14.8l-63.1-63.1C214.4,60.3,211.9,59.1,209.2,59.1z"/>
<g>
	<path fill="#FFFFFF" d="M70.8,220.9c-5.2,0-9.5-4.3-9.5-9.5V68.6c0-5.2,4.3-9.5,9.5-9.5h138.4c5.2,0,9.5,4.3,9.5,9.5v142.8
		c0,5.2-4.3,9.5-9.5,9.5H70.8z"/>
	<g>
		<path fill="#44475A" d="M104,226.9c0,1.4-1.1,2.6-2.6,2.6H83.1c-1.4,0-2.6-1.1-2.6-2.6v-6H104V226.9z"/>
		<path fill="#44475A" d="M199.4,226.9c0,1.4-1.1,2.6-2.6,2.6h-18.3c-1.4,0-2.6-1.1-2.6-2.6v-6h23.4V226.9z"/>
	</g>
	<path fill="#44475A" d="M206.1,69.1H73.9c-1.4,0-2.6,1.1-2.6,2.6v15.2h2.8c1.4,0,2.6,1.1,2.6,2.6v16.4c0,1.4-1.1,2.6-2.6,2.6h-2.8
		v63.2h2.8c1.4,0,2.6,1.1,2.6,2.6v16.4c0,1.4-1.1,2.6-2.6,2.6h-2.8v15.2c0,1.4,1.1,2.6,2.6,2.6h132.3c1.4,0,2.6-1.1,2.6-2.6V71.7
		C208.7,70.3,207.5,69.1,206.1,69.1z"/>
	<circle fill="#FFFFFF" cx="140" cy="140" r="41.6"/>
	<path fill="#44475A" d="M158.6,156.6c0.7,1.5,0.4,3.2-0.9,4.3c-1.2,1.1-3,1.1-4.4,0.2c-1-0.7-2.4-0.9-3.6-0.3c-1.2,0.6-1.9,1.7-2,3
		c-0.1,1.6-1.3,3-2.9,3.3c-1.6,0.3-3.2-0.5-3.9-2c-0.5-1.2-1.7-2-2.9-2.1c-1.3-0.1-2.5,0.5-3.2,1.6c-0.9,1.4-2.6,1.9-4.1,1.4
		c-1.5-0.5-2.5-2.1-2.3-3.7c0.1-1.3-0.5-2.5-1.5-3.3c-1.1-0.7-2.4-0.8-3.6-0.3c-1.5,0.7-3.2,0.4-4.3-0.9c-1.1-1.2-1.1-3-0.2-4.3
		c0.7-1,0.9-2.4,0.3-3.6c-0.6-1.2-1.7-1.9-3-2c-1.6-0.1-3-1.3-3.3-2.9c-0.3-1.6,0.5-3.2,2-3.9c1.2-0.5,2-1.7,2.1-2.9
		c0.1-1.3-0.5-2.5-1.6-3.2c-1.4-0.9-1.9-2.6-1.4-4.1c0.5-1.5,2.1-2.5,3.7-2.3c1.3,0.1,2.5-0.5,3.3-1.5c0.7-1.1,0.8-2.4,0.3-3.6
		c-0.7-1.5-0.4-3.2,0.9-4.3c1.2-1.1,3-1.1,4.4-0.2c1,0.7,2.4,0.9,3.6,0.3c1.2-0.6,1.9-1.7,2-3c0.1-1.6,1.3-3,2.9-3.3
		c1.6-0.3,3.2,0.5,3.9,2c0.5,1.2,1.7,2,2.9,2.1c1.3,0.1,2.5-0.5,3.2-1.6c0.9-1.4,2.6-1.9,4.1-1.4c1.5,0.5,2.5,2.1,2.3,3.7
		c-0.1,1.3,0.5,2.5,1.5,3.3c1.1,0.7,2.4,0.8,3.6,0.3c1.5-0.7,3.2-0.4,4.3,0.9c1.1,1.2,1.1,3,0.2,4.4c-0.7,1-0.9,2.4-0.3,3.6
		c0.6,1.2,1.7,1.9,3,2c1.6,0.1,3,1.3,3.3,2.9c0.3,1.6-0.5,3.2-2,3.9c-1.2,0.5-2,1.7-2.1,2.9c-0.1,1.3,0.5,2.5,1.6,3.2
		c1.4,0.9,1.9,2.6,1.4,4.1c-0.5,1.5-2.1,2.5-3.7,2.3c-1.3-0.1-2.5,0.5-3.3,1.5C158.2,154.1,158.1,155.4,158.6,156.6z"/>
</g>
</svg>
