<?xml version="1.0" encoding="utf-8"?>
<!-- Generator: Adobe Illustrator 17.1.0, SVG Export Plug-In . SVG Version: 6.00 Build 0)  -->
<!DOCTYPE svg PUBLIC "-//W3C//DTD SVG 1.1//EN" "http://www.w3.org/Graphics/SVG/1.1/DTD/svg11.dtd">
<svg version="1.1" id="Layer_1" xmlns="http://www.w3.org/2000/svg" xmlns:xlink="http://www.w3.org/1999/xlink" x="0px" y="0px"
	 viewBox="0 0 279.4 280" enable-background="new 0 0 279.4 280" xml:space="preserve">
<path fill="#FFCA08" d="M140,280C62.7,280,0,217.3,0,140C0,62.7,62.7,0,140,0c77.3,0,140,62.7,140,140C280,217.3,217.3,280,140,280"
	/>
<linearGradient id="SVGID_1_" gradientUnits="userSpaceOnUse" x1="76.9224" y1="76.8433" x2="239.0284" y2="238.9493">
	<stop  offset="0" style="stop-color:#F19D00"/>
	<stop  offset="1" style="stop-color:#FFCA08"/>
</linearGradient>
<path fill="url(#SVGID_1_)" d="M153.3,279.4c66.7-6.3,119.8-59.4,126.1-126.1l-76.3-76.4C187,60.7,164.6,50.7,140,50.7
	c-49.3,0-89.3,40-89.3,89.3c0,22.8,8.5,43.5,22.5,59.3L153.3,279.4"/>
<g>
	<g>
		<circle fill="#44475A" cx="140" cy="140" r="89.3"/>
	</g>
	<g>
		<circle fill="#FFFFFF" cx="140" cy="140" r="74.4"/>
	</g>
	<g>
		<g>
			<g>
				<g>
					<path fill="#44475A" d="M140,84.3c-1.7,0-3-1.3-3-3v-7c0-1.7,1.3-3,3-3s3,1.3,3,3v7C143,83,141.7,84.3,140,84.3z"/>
				</g>
				<g>
					<path fill="#44475A" d="M140,208.7c-1.7,0-3-1.3-3-3v-7c0-1.7,1.3-3,3-3s3,1.3,3,3v7C143,207.4,141.7,208.7,140,208.7z"/>
				</g>
			</g>
			<g>
				<g>
					<path fill="#44475A" d="M81.3,143h-7c-1.7,0-3-1.3-3-3c0-1.7,1.3-3,3-3h7c1.7,0,3,1.3,3,3C84.3,141.7,83,143,81.3,143z"/>
				</g>
				<g>
					<path fill="#44475A" d="M205.7,143h-7c-1.7,0-3-1.3-3-3c0-1.7,1.3-3,3-3h7c1.7,0,3,1.3,3,3C208.7,141.7,207.4,143,205.7,143z"
						/>
				</g>
			</g>
		</g>
		<g>
			<g>
				<g>
					<path fill="#44475A" d="M171.6,93.6c-0.6,0-1.1-0.2-1.6-0.5c-1.4-0.9-1.8-2.7-0.9-4.1l3.8-5.9c0.9-1.4,2.7-1.8,4.1-0.9
						c1.4,0.9,1.8,2.7,0.9,4.1l-3.8,5.9C173.6,93.1,172.6,93.6,171.6,93.6z"/>
				</g>
				<g>
					<path fill="#44475A" d="M104.6,198.3c-0.6,0-1.1-0.2-1.6-0.5c-1.4-0.9-1.8-2.7-0.9-4.1l3.8-5.9c0.9-1.4,2.7-1.8,4.1-0.9
						c1.4,0.9,1.8,2.7,0.9,4.1l-3.8,5.9C106.5,197.9,105.6,198.3,104.6,198.3z"/>
				</g>
			</g>
			<g>
				<g>
					<path fill="#44475A" d="M90.6,111.4c-0.6,0-1.1-0.2-1.6-0.5l-5.9-3.8c-1.4-0.9-1.8-2.7-0.9-4.1c0.9-1.4,2.7-1.8,4.1-0.9
						l5.9,3.8c1.4,0.9,1.8,2.7,0.9,4.1C92.5,110.9,91.6,111.4,90.6,111.4z"/>
				</g>
				<g>
					<path fill="#44475A" d="M195.3,178.4c-0.6,0-1.1-0.2-1.6-0.5l-5.9-3.8c-1.4-0.9-1.8-2.7-0.9-4.1c0.9-1.4,2.7-1.8,4.1-0.9
						l5.9,3.8c1.4,0.9,1.8,2.7,0.9,4.1C197.3,177.9,196.3,178.4,195.3,178.4z"/>
				</g>
			</g>
		</g>
		<g>
			<g>
				<g>
					<path fill="#44475A" d="M192.3,116.4c-1.1,0-2.1-0.6-2.7-1.6c-0.8-1.5-0.2-3.3,1.3-4l6.3-3.2c1.5-0.8,3.3-0.2,4,1.3
						c0.8,1.5,0.2,3.3-1.3,4l-6.3,3.2C193.2,116.3,192.8,116.4,192.3,116.4z"/>
				</g>
				<g>
					<path fill="#44475A" d="M81.4,172.8c-1.1,0-2.1-0.6-2.7-1.6c-0.8-1.5-0.2-3.3,1.3-4l6.3-3.2c1.5-0.8,3.3-0.2,4,1.3
						c0.8,1.5,0.2,3.3-1.3,4l-6.3,3.2C82.3,172.7,81.9,172.8,81.4,172.8z"/>
				</g>
			</g>
			<g>
				<g>
					<path fill="#44475A" d="M113.4,90.7c-1.1,0-2.1-0.6-2.7-1.6l-3.2-6.3c-0.8-1.5-0.2-3.3,1.3-4c1.5-0.8,3.3-0.2,4,1.3l3.2,6.3
						c0.8,1.5,0.2,3.3-1.3,4C114.4,90.6,113.9,90.7,113.4,90.7z"/>
				</g>
				<g>
					<path fill="#44475A" d="M169.8,201.6c-1.1,0-2.1-0.6-2.7-1.6l-3.2-6.3c-0.8-1.5-0.2-3.3,1.3-4c1.5-0.8,3.3-0.2,4,1.3l3.2,6.3
						c0.8,1.5,0.2,3.3-1.3,4C170.7,201.5,170.2,201.6,169.8,201.6z"/>
				</g>
			</g>
		</g>
	</g>
	<g>
		<path fill="#F35B74" d="M175.5,173.4L150.1,148c1.7-2.2,2.8-4.9,2.8-8c0-6.1-4.2-11.1-9.9-12.5V94.3c0-1.7-1.3-3-3-3s-3,1.3-3,3
			v33.2c-4.2,1-7.5,4-9,8h-23.4c-2.5,0-4.5,2-4.5,4.5c0,2.5,2,4.5,4.5,4.5H128c1.8,4.9,6.5,8.4,12,8.4c3,0,5.8-1,8-2.8l25.5,25.5
			c0.3,0.3,0.7,0.4,1.1,0.4s0.8-0.1,1.1-0.4C176.1,174.9,176.1,174,175.5,173.4z M140,145.7c-3.2,0-5.7-2.6-5.7-5.7
			c0-3.2,2.6-5.7,5.7-5.7c3.2,0,5.7,2.6,5.7,5.7C145.7,143.2,143.2,145.7,140,145.7z"/>
	</g>
</g>
</svg>
