<?xml version="1.0" encoding="utf-8"?>
<!-- Generator: Adobe Illustrator 17.1.0, SVG Export Plug-In . SVG Version: 6.00 Build 0)  -->
<!DOCTYPE svg PUBLIC "-//W3C//DTD SVG 1.1//EN" "http://www.w3.org/Graphics/SVG/1.1/DTD/svg11.dtd">
<svg version="1.1" id="Layer_1" xmlns="http://www.w3.org/2000/svg" xmlns:xlink="http://www.w3.org/1999/xlink" x="0px" y="0px"
	 viewBox="0 0 235.5 295" enable-background="new 0 0 235.5 295" xml:space="preserve">
<g>
	<g>
		<path fill="#EF7820" d="M185.5,183.3c-1.6,0.6-3.2,1.1-5,1.6c-11.5,3.2-36.7,6.7-62.9,7.2v82.8h34.4c12.8,0,24.9-10.2,26.9-22.9
			l7.7-47.6C188.7,191.7,188.2,182.3,185.5,183.3z"/>
		<path fill="#FF8A28" d="M110.6,192.1c-18.9,0-45.5-1.7-65.2-9.5c-0.2-0.1-0.3-0.1-0.4-0.2c-0.3-0.1,1.2,10.1,3.2,22.7l7.6,46.8
			c2,12.6,14,22.9,26.9,22.9h34.9V192C115.3,192.1,113,192.1,110.6,192.1z"/>
	</g>
	<g>
		<path fill="#D4D4D4" d="M147,96.3c14.8-9.6,28.2-32.9,5.6-49.6c-7.8-5.7-32.1-5.7-34.9-15v34h0.1c0,0-0.1,0-0.1,0v128.1
			c26.8-0.3,51.4-3.8,62-7.6C249.8,160.8,202.3,86.6,147,96.3z"/>
		<path fill="#D4D4D4" d="M122.5,19.8c-1.8,1-3.4,2-4.8,3.1v4.9C118.2,25.6,119.7,22.9,122.5,19.8z"/>
		<path fill="#FFFFFF" d="M71.4,115.8l-0.2-0.2c-6.9-9.7-8.4-18.5-4.5-26.3C74,74.9,98.1,66,117.2,65.7l0.4,0v-34
			c-0.3-1.1-0.4-2.4,0-3.9v-4.9c-15.2,10.9-13,23.2-0.5,37.5C87,60.8,41,82.1,66.9,118.6c-17.3-1.6-39.1,6.9-44.1,24.8
			c-5.7,20.6,5.3,33.3,23.9,40.7c19,7.6,45.9,10,71,9.8V65.7C89.7,74.4,68.7,83.2,71.4,115.8z M54.4,180.9c0.2,0.2,0.6,0.3,0.8,0.5
			c-2.3-0.7-4.5-1.5-6.5-2.3c-24.3-9.7-23.5-24.2-20.7-34.2c3.8-13.8,20.3-21,34.7-21c1.3,0,2.5,0.1,3.6,0.1
			C39.1,125,36.1,164.9,54.4,180.9z"/>
	</g>
</g>
</svg>
