<?xml version="1.0" encoding="utf-8"?>
<!-- Generator: Adobe Illustrator 17.1.0, SVG Export Plug-In . SVG Version: 6.00 Build 0)  -->
<!DOCTYPE svg PUBLIC "-//W3C//DTD SVG 1.1//EN" "http://www.w3.org/Graphics/SVG/1.1/DTD/svg11.dtd">
<svg version="1.1" id="Layer_1" xmlns="http://www.w3.org/2000/svg" xmlns:xlink="http://www.w3.org/1999/xlink" x="0px" y="0px"
	 viewBox="0 0 290.9 284.3" enable-background="new 0 0 290.9 284.3" xml:space="preserve">
<path fill="#EF7820" d="M151.9,60c-0.6-0.4-1.2-0.9-1.8-1.4v2.5C150.8,60.8,151.4,60.4,151.9,60z"/>
<path fill="#FF8A28" d="M114.9,80c5.4-1,11-1.8,16.7-2.3c6.1-6.4,12.4-12,18.6-16.5v-2.5c-2.6-1.9-5.2-3.7-7.8-5.2
	C132.9,60.5,123.6,69.5,114.9,80z"/>
<path fill="#FF8A28" d="M97.7,230.9c-10.5-5.9-16.5-19.8-16.6-39c-3.8-1.5-7.4-3.2-10.9-4.9c-0.9,23.4,5.6,43.7,22.1,53.3
	c16.2,9.2,36.5,5.2,55.9-6.7c-3.2-2.1-6.4-4.5-9.5-7.1C122.4,235.3,107.8,236.8,97.7,230.9z"/>
<path fill="#FF8A28" d="M80.8,138.6c-4.8,12.6-8,25-9.5,36.7c3.2,1.8,6.7,3.5,10.3,5.1c0.8-8.1,2.6-16.7,5.3-25.7
	C84.6,149.3,82.5,143.9,80.8,138.6z"/>
<path fill="#FF8A28" d="M104.7,113.8c5-8.6,10.5-16.6,16.2-23.8c-5.6,0.9-10.9,2-16,3.3c-3.3,4.8-6.6,9.8-9.6,15
	c-2.8,4.9-5.3,9.7-7.6,14.6c1.3,5.2,2.9,10.6,4.8,16C95.8,130.7,99.8,122.2,104.7,113.8z"/>
<path fill="#EF7820" d="M213.5,125.8c2.3,5.4,4.3,10.7,6.1,16c4.8-12.7,8-25,9.5-36.7c-3.2-1.8-6.7-3.5-10.3-5.1
	C217.9,108.1,216.1,116.8,213.5,125.8z"/>
<path fill="#EF7820" d="M195.7,166.5c-5,8.6-10.5,16.6-16.2,23.8c5.5-0.9,10.9-2,16-3.3c3.3-4.8,6.6-9.8,9.6-15
	c2.8-4.9,5.3-9.7,7.7-14.6c-1.3-5.2-2.9-10.6-4.8-16C204.6,149.7,200.6,158.2,195.7,166.5z"/>
<path fill="#EF7820" d="M202.7,49.5c10.5,5.9,16.5,19.8,16.6,39c3.8,1.5,7.4,3.2,10.9,4.9c0.9-23.4-5.6-43.7-22.1-53.3
	c-16.2-9.2-36.5-5.2-55.9,6.7c3.2,2.1,6.4,4.5,9.6,7.1C178,45,192.6,43.6,202.7,49.5z"/>
<path fill="#EF7820" d="M185.5,200.3c-5.4,1-11,1.8-16.7,2.3c-6.1,6.4-12.4,12-18.6,16.5v2.5c2.6,1.9,5.2,3.7,7.8,5.2
	C167.4,219.8,176.7,210.9,185.5,200.3z"/>
<path fill="#EF7820" d="M148.4,220.4c0.6,0.4,1.2,0.9,1.7,1.3v-2.5C149.6,219.6,149,220,148.4,220.4z"/>
<path fill="#FF8A28" d="M104.7,187.9c-8.4-2-16.2-4.6-23.2-7.6c-0.2,2.4-0.5,4.7-0.5,7c-0.1,1.6,0,3.1,0,4.6c9.9,3.9,20.9,7,32.9,9
	C110.7,196.8,107.7,192.4,104.7,187.9z"/>
<path fill="#EF7820" d="M235.1,96c-1.5-0.9-3.2-1.7-4.9-2.5c0,0,0,0.1,0,0.1c-0.2,3.7-0.6,7.6-1.1,11.6c0.1,0.1,0.3,0.1,0.4,0.2
	c0,0,0.1,0,0.1,0.1c16.4,9.5,25.2,21.4,25.3,33.4c0.1,5-1.3,9.9-4.1,14.7c-4.3,7.8-12.6,15.1-23.7,21.3c0.5,4.1,0.7,8,0.8,11.9
	c14.5-7.3,25.7-16.7,32.3-27.7c3.6-6.2,5.7-13.1,5.6-20.3C265.5,121.1,253.2,106.4,235.1,96z"/>
<path fill="#EF7820" d="M195.6,92.4c8.4,2,16.2,4.6,23.2,7.6c0.3-2.4,0.5-4.7,0.5-6.9c0.1-1.6,0-3.1,0-4.6c-9.9-3.9-20.9-7-32.9-9
	C189.6,83.6,192.6,87.9,195.6,92.4z"/>
<path fill="#EF7820" d="M180.3,89.6c-3.2-4.3-6.4-8.3-9.7-12.1c-6.7-0.6-13.5-0.9-20.5-0.8v10.9C160.7,87.5,170.8,88.2,180.3,89.6z"
	/>
<path fill="#EF7820" d="M185.5,200.3c11.4-2.1,22-5,31.6-8.8c0.1-3.7-0.1-7.6-0.5-11.7c-6.4,2.8-13.5,5.2-21.1,7.2
	C192.3,191.7,188.9,196.2,185.5,200.3z"/>
<path fill="#FF8A28" d="M120,190.8c3.1,4.3,6.4,8.4,9.7,12.1c6.7,0.6,13.5,0.9,20.5,0.8v-10.9C139.7,192.9,129.6,192.1,120,190.8z"
	/>
<path fill="#EF7820" d="M150.9,192.8L150.9,192.8c-0.2,0-0.5,0-0.7,0v10.9c0.3,0,0.6,0,0.9,0c6-0.1,12-0.5,17.8-1
	c3.6-3.8,7.2-7.9,10.7-12.3C170.4,191.8,160.8,192.7,150.9,192.8z"/>
<path fill="#FF8A28" d="M149.5,87.6c0.2,0,0.5,0,0.7,0V76.7c-0.3,0-0.6,0-0.9,0c-6,0.1-11.9,0.5-17.7,1c-3.6,3.8-7.2,7.9-10.7,12.3
	C130,88.5,139.5,87.7,149.5,87.6z"/>
<path fill="#FF8A28" d="M114.9,80c-11.4,2.1-22.1,5-31.6,8.8c-0.1,3.7,0.1,7.6,0.5,11.7c6.4-2.8,13.5-5.2,21.1-7.2
	C108.1,88.7,111.4,84.2,114.9,80z"/>
<path fill="#FF8A28" d="M71.3,175.3c-0.2-0.1-0.3-0.2-0.5-0.3c-16.4-9.5-25.2-21.5-25.3-33.4c-0.1-5,1.3-9.9,4.1-14.7
	c4.3-7.7,12.6-15.1,23.7-21.3c-0.5-4.1-0.7-8-0.8-11.9c-14.5,7.3-25.7,16.7-32.3,27.7c-3.6,6.3-5.7,13.2-5.6,20.3
	c0.3,17.5,12.6,32.1,30.7,42.6c0,0,0.1,0.1,0.1,0.1c1.5,0.9,3.2,1.7,4.9,2.5c0,0,0-0.1,0-0.1C70.3,183.1,70.7,179.2,71.3,175.3z"/>
<path fill="#EF7820" d="M219.3,93.1c-0.1,2.2-0.3,4.6-0.5,6.9c3.7,1.6,7.2,3.2,10.3,5.1c0.5-3.9,0.9-7.8,1.1-11.6c0,0,0-0.1,0-0.1
	c-3.5-1.8-7.1-3.4-10.9-4.9C219.3,90,219.4,91.5,219.3,93.1z"/>
<path fill="#FF8A28" d="M131.6,77.7c-5.7,0.6-11.3,1.3-16.7,2.3c-3.5,4.2-6.8,8.7-10,13.3c5.1-1.3,10.5-2.5,16-3.3
	C124.4,85.6,127.9,81.5,131.6,77.7z"/>
<path fill="#EF7820" d="M168.8,202.7c5.7-0.6,11.3-1.4,16.7-2.3c3.5-4.2,6.8-8.7,10-13.3c-5.1,1.3-10.5,2.4-16,3.3
	C176,194.7,172.4,198.8,168.8,202.7z"/>
<path fill="#FF8A28" d="M81,187.3c0.1-2.3,0.3-4.6,0.5-7c-3.7-1.6-7.2-3.3-10.3-5.1c-0.5,3.9-0.9,7.8-1.1,11.6c0,0,0,0.1,0,0.1
	c3.5,1.8,7.1,3.4,10.9,4.9C81,190.3,81,188.9,81,187.3z"/>
<path fill="#FF8A28" d="M90.2,58.7c3-5.2,6.8-9,11.5-11.4c10.1-5.4,24-3.7,39.4,5.2c0.4,0.3,0.9,0.6,1.3,0.8
	c2.6-1.9,5.2-3.7,7.8-5.4v-2.5c-1.2-0.8-2.4-1.6-3.6-2.3c-17.1-10-35-13.2-49.8-5.5c-6.7,3.5-12.1,8.9-15.9,15.6
	C74.7,64.1,72,78,72.4,93.7c3.5-1.8,7.1-3.4,10.9-4.9C83.4,76.6,85.8,66.2,90.2,58.7z"/>
<path fill="#FF8A28" d="M103.5,164.5C99,156,95.4,147.4,92.4,139c-2.1,5.3-4,10.5-5.5,15.6c2.1,5,4.4,9.9,7,14.9l4.8-2.5
	L103.5,164.5z"/>
<path fill="#FF8A28" d="M103.5,164.5l-4.8,2.5l-4.8,2.5c3.4,6.5,7.1,12.5,10.9,18.4c4.9,1.2,10,2.1,15.3,2.8
	C114.1,182.8,108.5,174.1,103.5,164.5z"/>
<path fill="#FF8A28" d="M87.6,123c-2-7.8-3.2-15.4-3.9-22.5c-3.7,1.6-7.3,3.3-10.5,5.1c1.3,10.5,3.8,21.6,7.6,33
	C82.7,133.4,85.1,128.2,87.6,123z"/>
<path fill="#FF8A28" d="M129.7,202.9c-5.4-0.5-10.7-1.1-15.8-2c7.8,10,16.1,18.6,24.7,25.7c1.7-0.9,3.4-1.9,5.2-3
	c1.6-1,3.1-2.1,4.7-3.2C142.1,215.5,135.8,209.7,129.7,202.9z"/>
<path fill="#EF7820" d="M150.8,47.6c0.5-0.3,0.9-0.5,1.4-0.8c-0.7-0.4-1.3-0.9-2-1.3V48C150.4,47.9,150.6,47.7,150.8,47.6z"/>
<path fill="#EF7820" d="M212.8,157.4c2,7.8,3.2,15.3,3.9,22.5c3.7-1.6,7.2-3.3,10.5-5.1c-1.3-10.5-3.8-21.6-7.6-32.9
	C217.6,147,215.3,152.2,212.8,157.4z"/>
<path fill="#EF7820" d="M195.6,92.4c-4.9-1.2-10-2.1-15.3-2.8c5.9,8,11.5,16.7,16.5,26.3c4.5,8.5,8.2,17.1,11.2,25.5
	c2.1-5.3,4-10.5,5.5-15.6c-2.1-5-4.4-10-7-14.9C203.1,104.4,199.4,98.3,195.6,92.4z"/>
<path fill="#EF7820" d="M170.7,77.5c5.4,0.5,10.7,1.1,15.8,1.9c-7.8-10-16.1-18.6-24.7-25.6c-1.7,0.9-3.4,1.8-5.1,2.9
	c-1.5,1-3.1,2.1-4.7,3.2C158.2,64.9,164.6,70.7,170.7,77.5z"/>
<path fill="#EF7820" d="M210.1,221.6c-3,5.2-6.8,9-11.5,11.4c-10.1,5.3-23.9,3.6-39.3-5.3c-0.4-0.3-0.9-0.6-1.3-0.8
	c-2.6,1.9-5.2,3.8-7.8,5.4v2.5c1.2,0.8,2.4,1.6,3.6,2.3c0,0,0,0,0,0c17.1,9.9,35,13.1,49.8,5.4c6.7-3.5,12-8.9,15.9-15.6
	c6.1-10.8,8.8-24.8,8.4-40.5c-3.4,1.7-7.1,3.4-10.9,4.9C216.9,203.8,214.6,214.2,210.1,221.6z"/>
<path fill="#EF7820" d="M150.2,48c-2.6,1.7-5.2,3.5-7.8,5.4c2.6,1.6,5.2,3.3,7.8,5.2V48z"/>
<path fill="#EF7820" d="M150.2,48v10.6c0.6,0.4,1.2,0.9,1.8,1.4c1.6-1.1,3.1-2.2,4.7-3.2c1.7-1.1,3.4-2,5.1-2.9
	c-3.2-2.6-6.3-4.9-9.6-7.1c-0.5,0.3-0.9,0.5-1.4,0.8C150.6,47.7,150.4,47.9,150.2,48z"/>
<path fill="#EF7820" d="M212.8,157.4c2.5-5.2,4.8-10.4,6.8-15.6c-1.8-5.3-3.8-10.7-6.1-16c-1.5,5.1-3.4,10.3-5.5,15.6
	C209.9,146.8,211.5,152.1,212.8,157.4z"/>
<path fill="#EF7820" d="M150.2,232.4v-10.6c-0.6-0.4-1.2-0.9-1.7-1.3c-1.6,1.1-3.1,2.2-4.7,3.2c-1.7,1.1-3.4,2-5.2,3
	c3.2,2.6,6.3,4.9,9.5,7.1c0.5-0.3,0.9-0.5,1.4-0.8C149.8,232.7,150,232.5,150.2,232.4z"/>
<path fill="#FF8A28" d="M87.6,123c-2.5,5.2-4.8,10.4-6.8,15.6c1.8,5.3,3.8,10.7,6.1,16c1.5-5.1,3.4-10.3,5.5-15.6
	C90.5,133.6,88.9,128.2,87.6,123z"/>
<path fill="#EF7820" d="M150.2,232.4c2.6-1.6,5.2-3.5,7.8-5.4c-2.6-1.5-5.2-3.3-7.8-5.2V232.4z"/>
<path fill="#EF7820" d="M195.6,92.4c-3-4.5-6-8.9-9.2-13c-5.1-0.9-10.4-1.5-15.8-1.9c3.3,3.7,6.5,7.8,9.7,12.1
	C185.6,90.4,190.7,91.3,195.6,92.4z"/>
<path fill="#FF8A28" d="M83.7,100.5c-0.4-4-0.5-8-0.5-11.7c-3.8,1.5-7.4,3.1-10.9,4.9c0.1,3.9,0.4,7.8,0.8,11.9
	C76.5,103.8,80,102.1,83.7,100.5z"/>
<path fill="#FF8A28" d="M104.7,187.9c3,4.5,6,8.9,9.2,13c5.1,0.9,10.4,1.5,15.8,2c-3.3-3.7-6.5-7.8-9.7-12.1
	C114.7,190,109.6,189.1,104.7,187.9z"/>
<path fill="#EF7820" d="M216.6,179.8c0.4,4,0.5,7.9,0.5,11.7c3.8-1.5,7.4-3.1,10.9-4.9c-0.1-3.9-0.4-7.8-0.8-11.9
	C223.9,176.6,220.3,178.3,216.6,179.8z"/>
<path fill="#D14330" d="M136.8,132.5c-4.3,7.4-1.8,16.8,5.6,21.1c2.4,1.4,5.1,2,7.7,2v-30.8C144.9,124.8,139.7,127.5,136.8,132.5z"
	/>
<path fill="#BF3426" d="M163.5,147.9c4.3-7.4,1.8-16.8-5.6-21.1c-2.4-1.4-5.1-2-7.7-2v30.8C155.5,155.5,160.7,152.9,163.5,147.9z"/>
</svg>
