<?xml version="1.0" encoding="utf-8"?>
<!-- Generator: Adobe Illustrator 17.1.0, SVG Export Plug-In . SVG Version: 6.00 Build 0)  -->
<!DOCTYPE svg PUBLIC "-//W3C//DTD SVG 1.1//EN" "http://www.w3.org/Graphics/SVG/1.1/DTD/svg11.dtd">
<svg version="1.1" id="Layer_1" xmlns="http://www.w3.org/2000/svg" xmlns:xlink="http://www.w3.org/1999/xlink" x="0px" y="0px"
	 viewBox="0 0 151.3 201.4" enable-background="new 0 0 151.3 201.4" xml:space="preserve">
<g>
	<g>
		<path fill="#FCFCFC" d="M96.9,76.2c-2.1-0.8-3.6-2.8-3.6-5.1V5.4c0-3-2.4-5.4-5.4-5.4H61.8c-3,0-5.4,2.4-5.4,5.4v65.7
			c0,2.3-1.4,4.3-3.6,5.1c-24.8,9-42.5,32.8-42.5,60.7c0,35.7,28.9,64.6,64.6,64.6c35.7,0,64.6-28.9,64.6-64.6
			C139.4,109,121.7,85.2,96.9,76.2z"/>
	</g>
	<g>
		<path fill="#64647A" d="M100.4,34.8c0,3-2.4,5.4-5.4,5.4H54.7c-3,0-5.4-2.4-5.4-5.4v-9.3c0-3,2.4-5.4,5.4-5.4H95
			c3,0,5.4,2.4,5.4,5.4V34.8z"/>
	</g>
	<g>
		<path fill="#64647A" d="M22.6,139c0,28.9,23.4,52.3,52.3,52.3c28.9,0,52.3-23.4,52.3-52.3c0,0-26.8-10-53.5,0
			C51.6,147.2,22.6,139,22.6,139z"/>
	</g>
	<g>
		<circle fill="#64647A" cx="74.9" cy="89.6" r="8"/>
	</g>
	<g>
		<circle fill="#64647A" cx="51.6" cy="118.6" r="12.2"/>
	</g>
	<g>
		<circle fill="#64647A" cx="104.7" cy="108.9" r="8.2"/>
	</g>
	<g>
		<path fill="#FFFFFF" d="M44.4,120.2c-0.9,0-1.6-0.7-1.6-1.6c0-4.8,3.9-8.8,8.8-8.8c0.9,0,1.6,0.7,1.6,1.6c0,0.9-0.7,1.6-1.6,1.6
			c-3.1,0-5.6,2.5-5.6,5.6C46,119.5,45.3,120.2,44.4,120.2z"/>
	</g>
	<g>
		<path fill="#FFFFFF" d="M100.4,110.8c-0.9,0-1.6-0.7-1.6-1.6c0-3.2,2.6-5.8,5.8-5.8c0.9,0,1.6,0.7,1.6,1.6c0,0.9-0.7,1.6-1.6,1.6
			c-1.5,0-2.6,1.2-2.6,2.6C102,110.1,101.3,110.8,100.4,110.8z"/>
	</g>
	<g>
		<path fill="#FFFFFF" d="M71,91.2c-0.9,0-1.6-0.7-1.6-1.6c0-3,2.4-5.4,5.4-5.4c0.9,0,1.6,0.7,1.6,1.6c0,0.9-0.7,1.6-1.6,1.6
			c-1.2,0-2.2,1-2.2,2.2C72.6,90.5,71.9,91.2,71,91.2z"/>
	</g>
</g>
</svg>
