<svg id="svg-source" height="0" version="1.1" 
  xmlns="http://www.w3.org/2000/svg" style="position:absolute; margin-left: -100%" 
  xmlns:xlink="http://www.w3.org/1999/xlink">
  <g id="menu" data-iconmelon="Dripicons:7a94fef4485136d7a7fa3ea7105f37b5">
    <g>
      <path d="M2.674,6.713h26.652C30.803,6.713,32,5.517,32,4.04s-1.197-2.674-2.674-2.674H2.674C1.197,1.366,0,2.563,0,4.04
		S1.197,6.713,2.674,6.713z"></path>
      <path d="M29.326,13.326H2.674C1.197,13.326,0,14.523,0,15.999c0,1.477,1.197,2.674,2.674,2.674h26.652
		c1.477,0,2.674-1.197,2.674-2.674C32,14.523,30.803,13.326,29.326,13.326z"></path>
      <path d="M29.326,25.287H2.674C1.197,25.287,0,26.483,0,27.96s1.197,2.674,2.674,2.674h26.652c1.477,0,2.674-1.197,2.674-2.674
		S30.803,25.287,29.326,25.287z"></path>
    </g>
  </g>
  <g id="terminal-2" data-iconmelon="Batch:5f77867b5e8af1594825ca68cc4438d8">
    <path id="terminal-2"  d="M26,0H6C2.686,0,0,2.686,0,6v20c0,3.313,2.686,6,6,6h20c3.313,0,6-2.687,6-6V6
	C32,2.686,29.313,0,26,0z M6,2c1.105,0,2,0.896,2,2S7.105,6,6,6S4,5.104,4,4S4.895,2,6,2z M28,26c0,1.106-0.894,2-2,2H6
	c-1.105,0-2-0.894-2-2V8h24V26z M10,18h4v-2h-4V18z M6,10v2h2v-2H6z M8,14H6v2h2V14z M10,12H8v2h2V12z"></path>
  </g>
  <g id="drop" data-iconmelon="Smallicons:4867ef0e7ff418d32d87ec799608ed0c">
    <path fill="#3CAED6" d="M12 0s12 13.373 12 20-5.372 12-12 12c-6.627 0-12-5.373-12-12l12-20z"></path>
    <path fill="#63BFDE" d="M16.994 16c-1.108 0-2.006.898-2.006 2.007 0 1.107.897 2.005 2.006 2.005 1.107 0 2.006-.897 2.006-2.005 0-1.109-.898-2.007-2.006-2.007z"></path>
    <path fill="#369DC0" d="M13 31c-6.627 0-12-5.373-12-12 0-5.497 8.25-15.627 11.066-18.926l-.066-.074s-12 13.373-12 20 5.373 12 12 12c3.568 0 6.764-1.566 8.961-4.039-2.119 1.885-4.901 3.039-7.961 3.039z"></path>
  </g>
  <g id="battery-middle" data-iconmelon="80 icons pack:9522ede891fefe1698e492261083b372">
    <g>
      <g>
        <path d="M29.916,11.335H28.21c-0.249-1.05-1.188-1.835-2.312-1.835H2.381C1.068,9.5,0,10.567,0,11.881v8.238
			C0,21.433,1.068,22.5,2.381,22.5h23.517c1.125,0,2.063-0.786,2.312-1.835h1.706c1.148,0,2.084-0.935,2.084-2.084v-5.162
			C32,12.27,31.064,11.335,29.916,11.335z M2.381,20.119v-8.238h23.517l0.002,8.238H2.381z M30.214,18.581
			c0,0.164-0.134,0.298-0.298,0.298h-1.637v-5.758h1.637c0.164,0,0.298,0.134,0.298,0.298V18.581z"></path>
      </g>
      <g>
        <rect x="3.274" y="12.875" width="2.382" height="6.251"></rect>
      </g>
      <g>
        <rect x="6.541" y="12.875" width="2.381" height="6.251"></rect>
      </g>
      <g>
        <rect x="9.807" y="12.875" width="2.381" height="6.251"></rect>
      </g>
    </g>
  </g>
</svg>